<?xml version="1.0" standalone="no"?>
<!DOCTYPE svg PUBLIC "-//W3C//DTD SVG 1.1//EN" "http://www.w3.org/Graphics/SVG/1.1/DTD/svg11.dtd" >
<svg xmlns="http://www.w3.org/2000/svg">
<metadata></metadata>
<defs>
<font id="postnllight" horiz-adv-x="1026" >
<font-face units-per-em="2048" ascent="1536" descent="-512" />
<missing-glyph horiz-adv-x="358" />
<glyph unicode="&#xfb01;" horiz-adv-x="995" d="M49 887v106h156v82q0 185 78 266q86 91 290 91q126 0 236 -27l-12 -100q-110 24 -222 24q-134 0 -190 -47q-32 -30 -44.5 -80t-12.5 -137v-72h514v-993h-125v887h-389v-887h-123v887h-156z" />
<glyph unicode="&#xfb02;" horiz-adv-x="991" d="M49 887v106h156v82q0 185 78 266q47 50 113 70.5t159 20.5q151 0 293 -39v-1393h-123v1311q-70 18 -174 18q-110 0 -166 -47q-32 -30 -44.5 -80t-12.5 -137v-72h227l-12 -106h-215v-887h-123v887h-156z" />
<glyph unicode="&#xfb03;" horiz-adv-x="1507" d="M49 887v106h156v82q0 185 78 266q86 91 254 91q27 0 92 -9l-13 -100q-36 6 -65 6q-110 0 -166 -47q-32 -30 -44.5 -80t-12.5 -137v-72h389v82q0 185 78 266q86 91 292 91q124 0 234 -27l-12 -100q-110 24 -219 24q-138 0 -191 -47q-33 -30 -45 -79.5t-12 -137.5v-72h512 v-993h-123v887h-389v-887h-125v887h-389v-887h-123v887h-156z" />
<glyph unicode="&#xfb04;" horiz-adv-x="1503" d="M49 887v106h156v82q0 185 78 266q86 91 254 91q27 0 92 -9l-13 -100q-36 6 -65 6q-110 0 -166 -47q-32 -30 -44.5 -80t-12.5 -137v-72h389v82q0 185 78 266q48 50 115 70.5t167 20.5q141 0 283 -39v-1393h-123v1311q-70 18 -174 18q-110 0 -166 -47q-32 -30 -44.5 -80 t-12.5 -137v-72h227l-12 -106h-215v-887h-123v887h-389v-887h-123v887h-156z" />
<glyph horiz-adv-x="0" />
<glyph horiz-adv-x="682" />
<glyph unicode=" "  horiz-adv-x="358" />
<glyph unicode="&#x09;" horiz-adv-x="358" />
<glyph unicode="&#xa0;" horiz-adv-x="358" />
<glyph unicode="!" horiz-adv-x="501" d="M172 70v20q0 48 18 73t60 25q78 0 78 -98v-20q0 -103 -78 -103t-78 103zM184 866v514h129v-514l-20 -446h-86z" />
<glyph unicode="&#x22;" horiz-adv-x="612" d="M96 1004v438h150l-33 -438h-117zM381 1004v438h151l-32 -438h-119z" />
<glyph unicode="#" d="M47 393v109h174l66 375h-240v108h256l70 395h110l-69 -395h301l69 395h111l-70 -395h154v-108h-172l-66 -375h238v-109h-258l-68 -393h-108l67 393h-303l-67 -393h-109l68 393h-154zM330 502h303l65 375h-303z" />
<glyph unicode="$" d="M111 37l20 129q75 -33 164.5 -52.5t150.5 -19.5h39v539q-186 57 -277 149t-91 250q0 162 101 258t267 117v213h103v-207q144 -3 280 -55l-24 -125q-146 48 -256 51v-534q52 -17 85.5 -29t76 -31.5t68.5 -38.5t54 -48t43 -63t25 -79.5t10 -100.5q0 -166 -95 -262 t-267 -121v-208h-103v198h-28q-170 0 -346 70zM262 1040q0 -54 16.5 -96.5t49 -72.5t69.5 -50t88 -39v494q-47 -9 -104 -35q-119 -59 -119 -201zM588 104q217 45 217 248q0 57 -15 99t-46.5 70.5t-67.5 47t-88 35.5v-500z" />
<glyph unicode="%" horiz-adv-x="1556" d="M104 995v29q0 389 250 389q129 0 189.5 -98t60.5 -291v-29q0 -193 -60 -290t-190 -97q-128 0 -189 97.5t-61 289.5zM221 1010q0 -157 32 -227t101 -70q74 0 103.5 67.5t29.5 229.5t-29.5 229.5t-103.5 67.5q-69 0 -101 -70t-32 -227zM389 39l682 1399l119 -52l-684 -1396 zM950 356v27q0 389 250 389q129 0 189.5 -98t60.5 -291v-27q0 -194 -60 -291.5t-190 -97.5q-129 0 -189.5 97.5t-60.5 291.5zM1067 369q0 -156 32.5 -225.5t100.5 -69.5q74 0 103.5 67.5t29.5 227.5q0 162 -29.5 230.5t-103.5 68.5q-68 0 -100.5 -70.5t-32.5 -228.5z" />
<glyph unicode="&#x26;" horiz-adv-x="1232" d="M92 268v15q0 208 256 362q-178 204 -178 408v16q0 41 9.5 84.5t34 91t60.5 84t94.5 60.5t131.5 24q135 0 216 -90t81 -236q0 -261 -277 -462q7 -8 35 -38t36 -38t31.5 -33.5t33.5 -35.5t31 -31.5t34 -34.5t32 -31t36 -34t36 -32q88 147 88 422h121q0 -143 -35 -272 t-86 -221q147 -122 252 -148v-125q-66 6 -153 51t-176 121q-164 -178 -396 -178q-93 0 -170.5 32.5t-127.5 102.5t-50 166zM229 287q0 -95 64.5 -148t165.5 -53q175 0 297 131q-166 149 -338 344q-189 -126 -189 -268v-6zM299 1059q0 -165 154 -350q215 160 215 366 q0 97 -44 156t-132 59q-52 0 -91 -20.5t-60.5 -54.5t-31.5 -70.5t-10 -75.5v-10z" />
<glyph unicode="'" horiz-adv-x="325" d="M96 1004v438h150l-33 -438h-117z" />
<glyph unicode="(" horiz-adv-x="757" d="M203 604q0 516 397 920l59 -47q-313 -382 -313 -873q0 -487 311 -874l-55 -45q-399 416 -399 919z" />
<glyph unicode=")" horiz-adv-x="757" d="M98 1477l60 47q397 -404 397 -920q0 -503 -399 -919l-56 45q312 392 312 874q0 486 -314 873z" />
<glyph unicode="*" horiz-adv-x="704" d="M45 1151l45 113l221 -113l-22 248h121l-23 -248l227 115l43 -113l-243 -76l172 -188l-101 -72l-133 215l-137 -213l-100 74l176 184z" />
<glyph unicode="+" d="M123 508v121h326v327h126v-327h326v-121h-326v-326h-126v326h-326z" />
<glyph unicode="," horiz-adv-x="405" d="M82 -279q59 124 94 236q-32 9 -54 39.5t-22 81.5v28q0 115 101 115q102 0 102 -123q0 -150 -133 -413z" />
<glyph unicode="-" horiz-adv-x="575" d="M102 455v120h371v-120h-371z" />
<glyph unicode="." horiz-adv-x="405" d="M104 84v22q0 56 27 85.5t72 29.5q46 0 72 -29.5t26 -85.5v-22q0 -58 -25.5 -87.5t-72.5 -29.5q-46 0 -72.5 30t-26.5 87z" />
<glyph unicode="/" horiz-adv-x="774" d="M57 -33l521 1446h139l-518 -1446h-142z" />
<glyph unicode="0" d="M102 659v60q0 367 96 530.5t314 163.5t315 -163.5t97 -530.5v-60q0 -367 -97 -529.5t-315 -162.5t-314 162.5t-96 529.5zM246 690q0 -318 60 -455t206 -137t206 137t60 455q0 320 -60 457t-206 137t-206 -137t-60 -457z" />
<glyph unicode="1" d="M131 1145l381 235h127v-1265h289v-115h-742v115h318v1126l-328 -205z" />
<glyph unicode="2" d="M115 127l172 178q80 84 134 144t122 145.5t109 152.5t69.5 143.5t28.5 141.5q0 124 -64 191q-70 67 -207 67q-159 0 -311 -65l-16 123q160 65 354 65q177 0 282 -92.5t105 -263.5q0 -167 -110.5 -342.5t-381.5 -452.5l-143 -147h619v-115h-748z" />
<glyph unicode="3" d="M117 33l22 121q143 -64 291 -64q164 0 243 72t79 219q0 138 -90 213q-96 80 -291 80h-19v106h19q154 0 248 75.5t94 205.5q0 118 -65 173.5t-193 55.5q-144 0 -285 -59l-12 123q155 59 311 59q178 0 283.5 -87t105.5 -249q0 -255 -235 -342v-4q126 -26 200 -115t74 -237 q0 -200 -119 -306t-344 -106q-73 0 -161 18.5t-156 47.5z" />
<glyph unicode="4" d="M35 375v114q271 430 622 891h125v-888h195v-117h-195v-375h-135v375h-612zM172 492h475v692q-96 -123 -233 -322t-242 -370z" />
<glyph unicode="5" d="M115 18l18 125q136 -53 309 -53q182 0 258 105q62 83 62 217q0 148 -68 220.5t-215 72.5q-120 0 -243 -50l-66 31l20 694h637v-112h-510l-16 -480q93 35 211 35q184 0 288.5 -104t104.5 -301q0 -218 -125 -334.5t-336 -116.5q-158 0 -329 51z" />
<glyph unicode="6" d="M82 584q0 122 18 234.5t61.5 223t110 191t171.5 130.5t237 50q74 0 117 -12l-15 -111q-46 8 -90 8q-180 0 -295 -118q-122 -133 -161 -416q59 45 141 69.5t170 24.5q181 0 286 -110.5t105 -305.5q0 -132 -49 -239t-145 -171.5t-222 -64.5q-75 0 -137 18.5t-107 51 t-79.5 79.5t-56 99.5t-35.5 115.5t-19.5 124t-5.5 129zM226 507q3 -102 20 -173q59 -246 274 -246q129 0 201 92.5t72 247.5q0 150 -69 231.5t-204 81.5q-146 0 -289 -90q-8 -42 -5 -144z" />
<glyph unicode="7" d="M92 1262v118h807v-123l-567 -1257h-154l580 1262h-666z" />
<glyph unicode="8" d="M80 346q0 126 80.5 232t226.5 163q-42 24 -72.5 44.5t-67 52.5t-59 64.5t-38 78t-15.5 96.5q0 151 114 243.5t279 92.5q169 0 272 -85t103 -238q0 -101 -71.5 -195.5t-200.5 -159.5q56 -29 95.5 -53t84 -60t71.5 -72.5t45.5 -87t18.5 -106.5q0 -122 -61 -212t-158 -133.5 t-215 -43.5q-88 0 -165 24t-137 70t-95 119.5t-35 165.5zM225 362q0 -129 83 -200.5t208 -71.5q122 0 203.5 70.5t81.5 193.5q0 98 -68 169.5t-241 160.5q-53 -22 -97.5 -51t-84.5 -68.5t-62.5 -91.5t-22.5 -111zM281 1083q0 -51 19.5 -94t59.5 -80t78 -63t97 -60 q98 51 161.5 125.5t63.5 171.5q0 104 -65 158.5t-171 54.5q-100 0 -171.5 -56.5t-71.5 -156.5z" />
<glyph unicode="9" d="M84 938q0 136 49 242.5t146.5 169.5t230.5 63q432 0 432 -616q0 -122 -18 -235t-61.5 -223t-110 -191t-171.5 -131t-237 -50q-70 0 -117 13l13 112q42 -10 92 -10q179 0 295 119q122 133 161 415q-57 -43 -141 -68.5t-170 -25.5q-179 0 -286 114t-107 302zM229 954 q0 -150 69.5 -232.5t203.5 -82.5q145 0 291 90q8 42 4.5 144.5t-21.5 173.5q-56 245 -274 245q-128 0 -200.5 -92t-72.5 -246z" />
<glyph unicode=":" horiz-adv-x="405" d="M104 84v22q0 56 27 85.5t72 29.5q46 0 72 -29.5t26 -85.5v-22q0 -58 -25.5 -87.5t-72.5 -29.5q-46 0 -72.5 30t-26.5 87zM104 903v23q0 56 26.5 85t72.5 29q47 0 72.5 -29t25.5 -85v-23q0 -58 -25.5 -87.5t-72.5 -29.5q-46 0 -72.5 30t-26.5 87z" />
<glyph unicode=";" horiz-adv-x="405" d="M82 -279q59 124 94 236q-32 9 -54 39.5t-22 81.5v28q0 115 101 115q102 0 102 -123q0 -150 -133 -413zM104 903v23q0 56 26.5 85t72.5 29q47 0 72.5 -29t25.5 -85v-23q0 -58 -25.5 -87.5t-72.5 -29.5q-46 0 -72.5 30t-26.5 87z" />
<glyph unicode="&#x3c;" d="M186 518v100l590 377l64 -102l-496 -320v-10l496 -321l-64 -101z" />
<glyph unicode="=" d="M123 303v123h778v-123h-778zM123 715v121h778v-121h-778z" />
<glyph unicode="&#x3e;" d="M186 242l498 321v10l-498 320l64 102l590 -377v-100l-590 -377z" />
<glyph unicode="?" horiz-adv-x="858" d="M82 1358q135 55 295 55q179 0 283 -94.5t104 -288.5q0 -179 -98 -282t-275 -103l-20 -264h-103l-16 373h63q168 0 244 65.5t76 214.5q0 135 -69.5 198.5t-207.5 63.5t-262 -51zM244 70v20q0 48 18 73t60 25q43 0 60 -24.5t17 -73.5v-20q0 -51 -17 -77t-60 -26 q-78 0 -78 103z" />
<glyph unicode="@" horiz-adv-x="1546" d="M104 709v6q0 318 185.5 508t496.5 190q160 0 285.5 -48.5t205.5 -136t121.5 -208t41.5 -266.5q0 -90 -15.5 -161t-48.5 -126t-89 -85t-132 -30q-129 0 -192 92q-89 -92 -222 -92q-103 0 -168 53t-65 148q0 102 80.5 161.5t245.5 59.5h92v29q0 79 -39.5 111t-134.5 32 q-91 0 -191 -35l-6 101q112 32 219 32q130 0 195 -65q63 -57 63 -178v-191q0 -87 32.5 -129.5t100.5 -42.5q77 0 118.5 79.5t41.5 230.5q0 260 -140 405t-394 145q-266 0 -412 -157t-146 -424q0 -302 163 -470.5t474 -168.5q69 0 163.5 11t140.5 22l8 -99 q-58 -19 -153.5 -32t-170.5 -13q-228 0 -396.5 84t-263 252.5t-94.5 405.5zM623 559q0 -58 34 -89.5t99 -31.5q101 0 178 80q-8 33 -8 76v96h-64q-130 0 -184.5 -33.5t-54.5 -97.5z" />
<glyph unicode="A" horiz-adv-x="1173" d="M51 0q170 580 467 1380h141q259 -674 463 -1380h-143q-49 177 -90 307h-600q-10 -28 -92 -307h-146zM330 440h516q-106 349 -256 764h-4q-146 -421 -256 -764z" />
<glyph unicode="B" horiz-adv-x="1153" d="M178 0v1380h314q60 0 105 -2.5t97.5 -11t90 -23t74.5 -41t59.5 -63t36.5 -90t14 -121.5q0 -104 -44 -183t-139 -112v-4q123 -19 202 -110.5t79 -229.5q0 -184 -111 -291q-69 -62 -167.5 -80t-247.5 -18h-363zM313 133h250q74 0 124 5t98 20.5t75.5 43.5t44.5 76t17 117 q0 114 -70 178q-82 76 -272 76h-267v-516zM313 782h209q163 0 236 52.5t73 195.5q0 51 -18 97t-51 73q-63 47 -219 47h-230v-465z" />
<glyph unicode="C" horiz-adv-x="1126" d="M106 688v10q0 348 149 531.5t439 183.5q193 0 363 -94l-37 -135q-164 92 -330 92q-217 0 -327.5 -148.5t-110.5 -433.5q0 -594 428 -594q185 0 338 78l35 -121q-67 -38 -171 -64t-206 -26q-125 0 -222.5 36t-162.5 99.5t-107 155.5t-60 198t-18 232z" />
<glyph unicode="D" horiz-adv-x="1267" d="M178 0v1380h303q256 0 391 -55q289 -124 289 -620v-19q0 -408 -196 -575q-79 -64 -197 -87.5t-303 -23.5h-287zM313 133h211q141 0 227 24.5t146 84.5q119 122 119 454q0 345 -139 463q-57 48 -144.5 68t-218.5 20h-201v-1114z" />
<glyph unicode="E" horiz-adv-x="1038" d="M178 0v1380h768l-10 -133h-623v-465h547v-133h-547v-516h623v-133h-758z" />
<glyph unicode="F" horiz-adv-x="1013" d="M178 0v1380h768l-10 -133h-623v-465h547v-133h-547v-649h-135z" />
<glyph unicode="G" horiz-adv-x="1228" d="M106 680v10q0 347 153.5 535t442.5 188q196 0 369 -94l-37 -135q-167 92 -336 92q-218 0 -332 -149.5t-114 -432.5q0 -287 108.5 -440.5t327.5 -153.5q134 0 246 41v424h-287v133h422v-647q-77 -38 -178.5 -61t-196.5 -23q-588 0 -588 713z" />
<glyph unicode="H" horiz-adv-x="1320" d="M178 0v1380h135v-598h695v598h135v-1380h-135v649h-695v-649h-135z" />
<glyph unicode="I" horiz-adv-x="503" d="M184 0v1380h135v-1380h-135z" />
<glyph unicode="J" horiz-adv-x="811" d="M53 -10l8 119q82 -19 136 -19q175 0 247 96q35 47 45.5 115.5t10.5 190.5v888h135v-886q0 -169 -21.5 -264.5t-91.5 -161.5q-48 -47 -128.5 -74t-176.5 -27q-82 0 -164 23z" />
<glyph unicode="K" horiz-adv-x="1087" d="M178 0v1380h135v-684q170 154 309 314.5t283 369.5h146q-229 -342 -488 -604l498 -776h-164l-438 676q-73 -73 -146 -135v-541h-135z" />
<glyph unicode="L" horiz-adv-x="921" d="M178 0v1380h135v-1247h543v-133h-678z" />
<glyph unicode="M" horiz-adv-x="1665" d="M156 0q23 632 82 1380h129q374 -799 467 -1028h4q97 233 471 1028h121q55 -704 79 -1380h-141q-2 131 -53 1110h-4q-25 -55 -97.5 -210.5t-120 -258.5t-112 -245.5t-111.5 -250.5h-82q-136 306 -436 965h-4q-43 -713 -53 -1110h-139z" />
<glyph unicode="N" horiz-adv-x="1378" d="M178 0v1380h127l766 -1128h2v1128h127v-1380h-108l-785 1143h-2v-1143h-127z" />
<glyph unicode="O" horiz-adv-x="1267" d="M106 680v20q0 126 17.5 231t57 195.5t100 153t150.5 98t204 35.5q141 0 244.5 -53t164 -151.5t89 -224.5t28.5 -284v-20q0 -158 -28.5 -284t-89 -224.5t-164 -151.5t-244.5 -53q-114 0 -204 35.5t-150.5 98t-100 153t-57 195.5t-17.5 231zM252 692q0 -294 88.5 -443 t294.5 -149q205 0 293 147.5t88 442.5q0 294 -88 442t-293 148q-206 0 -294.5 -147.5t-88.5 -440.5z" />
<glyph unicode="P" horiz-adv-x="1105" d="M178 0v1380h314q150 0 256 -26t172 -94q102 -105 102 -306q0 -222 -123 -336q-113 -102 -348 -102h-238v-516h-135zM313 649h215q71 0 121 6.5t96 25.5t73 52.5t43 88.5t16 132q0 157 -97 232q-81 61 -256 61h-211v-598z" />
<glyph unicode="Q" horiz-adv-x="1267" d="M106 680v20q0 126 17.5 231t57 195.5t100 153t150.5 98t204 35.5q141 0 244.5 -53t164 -151.5t89 -224.5t28.5 -284v-20q0 -543 -311 -672l211 -260l-113 -76l-221 301q-47 -6 -92 -6q-114 0 -204 35.5t-150.5 98t-100 153t-57 195.5t-17.5 231zM252 692 q0 -294 88.5 -443t294.5 -149q205 0 293 147.5t88 442.5q0 294 -88 442t-293 148q-206 0 -294.5 -147.5t-88.5 -440.5z" />
<glyph unicode="R" horiz-adv-x="1130" d="M178 0v1380h307q150 0 256 -26t172 -94q103 -106 103 -297q0 -214 -123 -328q-52 -42 -115 -66l254 -569h-145l-230 541q-52 -6 -112 -6h-232v-535h-135zM313 668h168q170 0 219 14q84 23 127 88.5t43 192.5q0 149 -96 223q-81 61 -256 61h-205v-579z" />
<glyph unicode="S" horiz-adv-x="976" d="M100 1040q0 92 34 164t93 117t136.5 68.5t168.5 23.5q156 0 279 -55l-23 -125q-134 51 -256 51q-125 0 -206.5 -60t-81.5 -184q0 -62 19 -108.5t57.5 -78t79.5 -51t102 -38.5l65 -21q63 -19 106.5 -37.5t89 -49t72.5 -68.5t44.5 -96t17.5 -132q0 -191 -115 -292 t-346 -101q-76 0 -168.5 20t-163.5 50l19 129q166 -72 309 -72q74 0 130 12.5t100 41t67 80t23 124.5q0 52 -13.5 92t-32.5 65.5t-55.5 47t-67.5 33.5t-83 28l-60 19q-167 53 -253.5 147t-86.5 256z" />
<glyph unicode="T" horiz-adv-x="1071" d="M72 1247v133h929l-16 -133h-385v-1247h-135v1247h-393z" />
<glyph unicode="U" horiz-adv-x="1302" d="M172 498v882h135v-868q0 -213 76.5 -312.5t267.5 -99.5t267.5 99.5t76.5 312.5v868h135v-882q0 -268 -111 -399.5t-368 -131.5q-256 0 -367.5 132t-111.5 399z" />
<glyph unicode="V" horiz-adv-x="1179" d="M53 1380h146q156 -540 389 -1202h4q233 662 389 1202h145q-190 -647 -464 -1380h-146q-269 721 -463 1380z" />
<glyph unicode="W" horiz-adv-x="1816" d="M53 1380h146q55 -272 149 -601t189 -601h4q88 291 215 785q51 206 88 417h135q59 -289 94 -417q141 -531 221 -785h2q86 242 174 573t148 629h143q-148 -686 -395 -1380h-145q-158 459 -308 1092h-4q-122 -541 -299 -1092h-147q-279 784 -410 1380z" />
<glyph unicode="X" horiz-adv-x="1093" d="M61 0l412 696q-173 289 -393 684h166q176 -341 311 -573q188 318 322 573h153q-172 -313 -403 -684l413 -696h-180l-313 582l-318 -582h-170z" />
<glyph unicode="Y" horiz-adv-x="1048" d="M53 1380h150q145 -442 317 -780h6q189 371 320 780h149q-157 -468 -405 -927v-453h-131v455q-255 461 -406 925z" />
<glyph unicode="Z" horiz-adv-x="1060" d="M100 127l695 1120h-678v133h835v-125l-696 -1122h707v-133h-844z" />
<glyph unicode="[" horiz-adv-x="706" d="M203 -229v1628h342v-103h-219v-1423h219v-102h-342z" />
<glyph unicode="\" horiz-adv-x="774" d="M57 1413h140l520 -1446h-142z" />
<glyph unicode="]" horiz-adv-x="706" d="M164 -127h217v1423h-217v103h340v-1628h-340v102z" />
<glyph unicode="^" d="M76 659l381 637h112l381 -637l-110 -55l-328 561l-334 -561z" />
<glyph unicode="_" horiz-adv-x="1005" d="M6 -150h993v-118h-993v118z" />
<glyph unicode="`" horiz-adv-x="657" d="M98 1343l78 121l387 -254l-59 -96z" />
<glyph unicode="a" horiz-adv-x="991" d="M80 260q0 95 49.5 174t140.5 121q134 61 383 61h62v56q0 124 -58 183.5t-206 59.5q-65 0 -141 -18t-136 -45l-20 109q147 65 319 65q175 0 270 -84.5t95 -261.5v-496q0 -64 11.5 -86t59.5 -22h9v-82q-23 -10 -68 -10q-49 0 -86 26t-45 82q-138 -125 -330 -125 q-132 0 -220.5 79t-88.5 214zM211 268q0 -81 53 -134.5t152 -53.5q88 0 170 39.5t129 95.5v301h-70q-150 0 -254 -29q-80 -27 -130 -82t-50 -137z" />
<glyph unicode="b" horiz-adv-x="1060" d="M127 0q10 102 10 330v1083h123v-483q141 96 307 96q109 0 199 -52.5t139 -154.5q62 -127 62 -315v-6q0 -197 -72 -330q-52 -93 -141.5 -147t-212.5 -54q-156 0 -301 109l-13 -76h-100zM260 197q130 -111 270 -111q138 0 220 92q84 104 84 328q0 218 -84 317 q-77 86 -218 86q-69 0 -142 -28.5t-130 -73.5v-610z" />
<glyph unicode="c" horiz-adv-x="909" d="M96 487v7q0 254 115.5 393t337.5 139q161 0 287 -78l-21 -119q-41 31 -113 54.5t-145 23.5q-330 0 -330 -411q0 -207 76.5 -310.5t243.5 -103.5q145 0 264 61l20 -108q-136 -68 -290 -68q-205 0 -312 107q-133 133 -133 413z" />
<glyph unicode="d" horiz-adv-x="1067" d="M96 471v8q0 294 148 439q111 108 286 108q150 0 277 -65v452h123v-1018q0 -197 10 -395h-104l-11 86q-147 -119 -313 -119q-85 0 -163 32.5t-130 90.5q-123 136 -123 381zM227 494q0 -195 77.5 -301.5t232.5 -106.5q72 0 143 31.5t127 83.5v637q-52 32 -119.5 51.5 t-124.5 19.5q-94 0 -161.5 -34t-104.5 -94t-53.5 -130.5t-16.5 -156.5z" />
<glyph unicode="e" d="M96 489v5q0 102 24.5 193.5t73.5 169t133.5 123.5t194.5 46q340 0 398 -373q12 -71 12 -168v-43h-703q19 -360 330 -360q69 0 149.5 17.5t131.5 43.5l20 -108q-62 -31 -145 -49.5t-162 -18.5q-211 0 -317 109q-140 140 -140 413zM227 551h572q-8 169 -75 262.5t-196 93.5 q-123 0 -196 -76q-92 -92 -105 -280z" />
<glyph unicode="f" horiz-adv-x="585" d="M49 887v106h156v82q0 185 78 266q86 91 254 91q27 0 92 -9l-13 -100q-36 6 -65 6q-110 0 -166 -47q-32 -30 -44.5 -80t-12.5 -137v-72h237l-12 -106h-225v-887h-123v887h-156z" />
<glyph unicode="g" horiz-adv-x="1032" d="M115 682v8q0 167 106 251.5t279 84.5q160 0 266 -74q36 44 93.5 80.5t121.5 50.5v-139q-81 -11 -156 -53q60 -86 60 -201v-8q0 -90 -31.5 -157t-86.5 -105t-121.5 -56t-145.5 -18q-83 0 -138 16q-43 -82 -86 -200l248 -10q132 -6 207.5 -32t120.5 -75q59 -62 59 -172 q0 -140 -108.5 -217.5t-294.5 -77.5q-181 0 -281 68t-100 188q0 55 27 114t71 95q-45 3 -67 25q-23 20 -23 49t9 54t34 73q45 81 94 149q-157 83 -157 289zM246 686q0 -119 59.5 -177t196.5 -58q136 0 194 58t58 177q0 118 -58.5 176t-193.5 58q-137 0 -196.5 -58 t-59.5 -176zM248 -145q0 -75 66 -121.5t202 -46.5q125 0 198.5 44t73.5 134q0 74 -51 110q-64 48 -252 56l-163 4q-74 -74 -74 -180z" />
<glyph unicode="h" horiz-adv-x="1077" d="M137 0v1413h123v-539q74 71 167.5 111.5t186.5 40.5q169 0 248 -82q84 -84 84 -285v-659h-123v637q0 158 -55 213q-48 53 -168 53q-82 0 -176 -44t-164 -120v-739h-123z" />
<glyph unicode="i" horiz-adv-x="430" d="M137 1309v16q0 100 78 100t78 -100v-16q0 -97 -78 -97t-78 97zM154 0v993h122v-993h-122z" />
<glyph unicode="j" horiz-adv-x="423" d="M-74 -420l6 107h19q104 0 153.5 67t49.5 242v997h122v-985q0 -215 -74 -322.5t-239 -107.5q-25 0 -37 2zM137 1309v16q0 100 78 100t78 -100v-16q0 -97 -78 -97t-78 97z" />
<glyph unicode="k" horiz-adv-x="888" d="M137 0v1413h123v-868q105 81 220.5 201t209.5 247h144q-155 -226 -340 -401l358 -592h-147l-306 506q-57 -47 -139 -107v-399h-123z" />
<glyph unicode="l" horiz-adv-x="409" d="M143 0v1413h123v-1413h-123z" />
<glyph unicode="m" horiz-adv-x="1640" d="M137 0v993h101l14 -119q62 68 149 110t181 42q95 0 161.5 -40t100.5 -109q152 149 344 149q154 0 239 -82q82 -82 82 -285v-659h-123v637q0 79 -9.5 125.5t-35.5 77.5q-50 63 -174 63q-159 0 -288 -141q4 -37 4 -127v-635h-123v623q0 44 -2 74.5t-8.5 66t-20 58 t-34.5 42.5t-54.5 29.5t-77.5 9.5q-79 0 -160.5 -43t-142.5 -112v-748h-123z" />
<glyph unicode="n" horiz-adv-x="1077" d="M137 0v993h101l16 -125q75 75 169 116.5t191 41.5q169 0 248 -82q84 -84 84 -285v-659h-123v637q0 158 -55 213q-48 53 -168 53q-86 0 -177.5 -43.5t-162.5 -120.5v-739h-123z" />
<glyph unicode="o" horiz-adv-x="1062" d="M96 496v2q0 257 108.5 392.5t325.5 135.5q219 0 328 -134.5t109 -391.5v-4q0 -257 -109.5 -393t-327.5 -136q-217 0 -325.5 136t-108.5 393zM227 496q0 -208 74.5 -313t230.5 -105t230 104.5t74 313.5q0 210 -74 314.5t-230 104.5t-230.5 -104.5t-74.5 -314.5z" />
<glyph unicode="p" horiz-adv-x="1069" d="M137 -389v1382h90l15 -100q81 69 169.5 101t161.5 32q176 0 281 -119q119 -132 119 -385v-10q0 -293 -148 -438q-110 -107 -286 -107q-149 0 -279 68v-424h-123zM260 158q52 -34 119.5 -54t126.5 -20q76 0 134.5 22.5t96 61t62 92.5t34 112t9.5 126q0 224 -90 323 q-74 80 -201 80q-155 0 -291 -125v-618z" />
<glyph unicode="q" horiz-adv-x="1069" d="M96 489v11q0 81 14.5 155.5t47 142.5t81 118.5t121 80t162.5 29.5q89 0 160.5 -25.5t144.5 -80.5l15 73h90v-1382h-123v450q-144 -94 -311 -94q-111 0 -202 51.5t-140 153.5q-60 123 -60 317zM227 485q0 -212 88 -315q77 -86 217 -86q72 0 145 28.5t132 73.5v619 q-58 50 -128 76t-130 26q-80 0 -140.5 -27.5t-94.5 -68.5t-55 -100t-27.5 -112t-6.5 -114z" />
<glyph unicode="r" horiz-adv-x="620" d="M137 0v993h101l14 -137q138 148 328 162v-139q-90 -4 -174.5 -42.5t-145.5 -97.5v-739h-123z" />
<glyph unicode="s" horiz-adv-x="821" d="M100 735q0 99 50 166t128.5 96t180.5 29q116 0 225 -37l-12 -108q-112 34 -203 34q-124 0 -184 -44.5t-60 -122.5q0 -35 11 -62t27 -45t45 -33t54 -24t66 -21l51 -16q148 -46 206 -106t58 -173q0 -301 -358 -301q-147 0 -281 58l11 108q135 -59 258 -59q118 0 181.5 38.5 t63.5 143.5q0 68 -44 107.5t-140 66.5l-57 16q-36 11 -59 18.5t-55 21.5t-53 28.5t-43.5 36.5t-36 47t-22 60t-8.5 77z" />
<glyph unicode="t" horiz-adv-x="645" d="M39 887v106h156v279l122 18v-297h258l-6 -106h-252v-531q0 -121 18.5 -180.5t60.5 -81.5t128 -22q20 0 56 4l10 -103q-52 -6 -96 -6q-167 0 -233 81.5t-66 254.5v584h-156z" />
<glyph unicode="u" horiz-adv-x="1048" d="M131 453v540h123v-538q0 -151 12.5 -216t57.5 -106q65 -55 200 -55q136 0 201 55q45 41 57.5 106t12.5 216v538h123v-540q0 -71 -3 -122t-13 -105t-27 -90.5t-46.5 -71t-71 -54t-100 -31.5t-133.5 -12q-66 0 -118.5 8t-92 26t-69 40.5t-49.5 56.5t-33 69t-19.5 84t-9 95 t-2.5 107z" />
<glyph unicode="v" horiz-adv-x="872" d="M31 993h129q40 -155 126 -423.5t146 -428.5h4q68 185 153 444t122 408h131q-65 -233 -166.5 -518t-179.5 -475h-134q-74 181 -172.5 469t-158.5 524z" />
<glyph unicode="w" horiz-adv-x="1368" d="M31 993h129q51 -211 239 -821q156 517 230 821h110q82 -337 228 -821q197 640 241 821h129q-52 -204 -145 -488.5t-174 -504.5h-111q-15 51 -62.5 211t-64 216.5t-45.5 161t-51 193.5q-70 -276 -225 -782h-109q-81 214 -174.5 500.5t-144.5 492.5z" />
<glyph unicode="x" horiz-adv-x="860" d="M31 0l325 502q-193 306 -303 491h154q111 -198 227 -393q139 223 230 393h143q-123 -212 -305 -491l329 -502h-167l-238 401l-244 -401h-151z" />
<glyph unicode="y" horiz-adv-x="1024" d="M131 393v600h123v-587q0 -150 49 -209q57 -76 176 -76q154 0 285 92v780h123v-921q0 -119 -25 -206.5t-81.5 -154t-155 -100t-238.5 -33.5q-43 0 -106 8l8 101q60 -6 90 -6q219 0 305 94q80 93 80 260v57q-145 -92 -303 -92q-101 0 -181.5 47t-117.5 137q-31 70 -31 209z " />
<glyph unicode="z" horiz-adv-x="841" d="M72 104l503 783h-489v106h633v-110l-502 -777h522v-106h-647z" />
<glyph unicode="{" horiz-adv-x="698" d="M135 598v68q146 44 146 202v363q0 133 55 198.5t174 65.5h102v-94h-55q-92 0 -123 -36.5t-31 -154.5v-282q0 -151 -34.5 -213t-130.5 -82v-4q96 -19 130.5 -80.5t34.5 -212.5v-283q0 -118 30.5 -154t123.5 -36h55v-94h-102q-119 0 -174 65.5t-55 198.5v362 q0 156 -146 203z" />
<glyph unicode="|" horiz-adv-x="557" d="M217 -33v1465h123v-1465h-123z" />
<glyph unicode="}" horiz-adv-x="706" d="M96 -137h56q92 0 121.5 36t29.5 154v283q0 151 35.5 212.5t132.5 80.5v4q-97 20 -132.5 82.5t-35.5 212.5v282q0 119 -29.5 155t-121.5 36h-56v94h101q121 0 176 -65.5t55 -198.5v-363q0 -158 143 -202v-68q-143 -47 -143 -203v-362q0 -133 -55 -198.5t-176 -65.5h-101 v94z" />
<glyph unicode="~" d="M39 498q54 93 115 141.5t143 48.5q32 0 68.5 -11.5t58.5 -22.5t68 -36l75 -40q102 -54 160 -54q53 0 89.5 28t78.5 99l88 -55q-52 -97 -113.5 -141.5t-140.5 -44.5q-91 0 -201 61l-82 43q-3 2 -15.5 9t-16.5 9t-15 8.5t-16.5 8.5t-15.5 7t-16.5 6.5t-15.5 4t-17.5 3.5 t-16.5 1q-36 0 -71.5 -23.5t-56 -48.5t-50.5 -69z" />
<glyph unicode="&#xa1;" horiz-adv-x="501" d="M172 903v21q0 102 78 102t78 -102v-21q0 -98 -78 -98q-42 0 -60 25t-18 73zM184 127l23 446h86l20 -446v-514h-129v514z" />
<glyph unicode="&#xa2;" d="M143 678v6q0 228 94 364t275 162v203h104v-196q76 -3 148 -25t121 -53l-23 -117q-39 28 -107.5 50.5t-138.5 25.5v-826q135 6 242 62l21 -107q-119 -61 -263 -67v-193h-104v197q-152 13 -236 100q-133 133 -133 414zM274 688q0 -182 57 -283t181 -124v809 q-238 -52 -238 -402z" />
<glyph unicode="&#xa3;" d="M109 692v113h170v164q0 444 419 444q106 0 217 -33l-26 -129q-85 29 -182 29q-163 0 -228 -79.5t-65 -258.5v-137h331v-113h-331v-205q0 -124 -43 -227t-105 -143v-4h615v-113h-758l-6 129q74 47 118 133t44 184v246h-170z" />
<glyph unicode="&#xa4;" d="M39 207l149 149q-63 97 -63 224q0 126 65 221l-151 151l96 97l152 -150q94 70 227 70q130 0 225 -68l152 148l96 -97l-151 -149q67 -91 67 -223q0 -135 -67 -226l151 -147l-96 -98l-152 147q-97 -66 -225 -66q-132 0 -227 68l-152 -149zM260 580q0 -112 73.5 -183 t180.5 -71t180.5 71t73.5 183t-73.5 183t-180.5 71t-180.5 -71t-73.5 -183z" />
<glyph unicode="&#xa5;" d="M41 1380h149q153 -465 318 -790h6q180 354 320 790h149q-135 -405 -340 -802h203v-121h-268v-133h268v-123h-268v-201h-132v201h-262v123h262v133h-262v121h197q-216 419 -340 802z" />
<glyph unicode="&#xa6;" horiz-adv-x="557" d="M225 -33v533h107v-533h-107zM225 956v547h107v-547h-107z" />
<glyph unicode="&#xa7;" horiz-adv-x="946" d="M145 729q0 65 38.5 122.5t105.5 92.5q-131 80 -131 213q0 123 93 189.5t241 66.5q118 0 213 -39l-5 -98q-116 35 -200 35q-109 0 -163 -39.5t-54 -106.5q0 -54 37.5 -92.5t125.5 -75.5l140 -59q111 -47 163 -103t52 -155q0 -57 -32 -115t-91 -108q47 -24 78.5 -77 t31.5 -116q0 -150 -92 -223.5t-252 -73.5q-140 0 -282 56l6 106q162 -55 264 -55q116 0 175 43.5t59 118.5q0 68 -39.5 107t-163.5 89l-94 41q-44 18 -79 38t-70.5 50.5t-55 73t-19.5 94.5zM274 743q0 -59 32 -92t106 -67l184 -84q88 91 88 166q0 55 -40 96t-136 80l-135 55 q-99 -55 -99 -154z" />
<glyph unicode="&#xa8;" horiz-adv-x="657" d="M70 1303v10q0 50 27.5 77t68.5 27q44 0 71 -26.5t27 -77.5v-10q0 -51 -26.5 -76t-71.5 -25q-41 0 -68.5 25.5t-27.5 75.5zM389 1303v10q0 50 28.5 77t69.5 27q43 0 71 -27t28 -77v-10q0 -50 -27.5 -75.5t-71.5 -25.5q-41 0 -69.5 25.5t-28.5 75.5z" />
<glyph unicode="&#xa9;" horiz-adv-x="1529" d="M104 680q0 190 84.5 344.5t237 244t342.5 89.5q142 0 265.5 -52.5t210.5 -142.5t136.5 -215.5t49.5 -267.5q0 -191 -84.5 -346t-236.5 -244.5t-341 -89.5q-190 0 -342.5 89.5t-237 244.5t-84.5 346zM223 680q0 -155 67 -283.5t192.5 -206t285.5 -77.5q159 0 284 77.5 t192 206t67 283.5q0 153 -67 280.5t-192 204t-284 76.5q-160 0 -285.5 -76.5t-192.5 -203.5t-67 -281zM471 672v4q0 187 81 281t224 94q108 0 191 -52l-17 -98q-83 49 -166 49q-98 0 -148 -69t-50 -203q0 -275 190 -275q89 0 172 39l19 -94q-99 -47 -187 -47 q-157 0 -233 92.5t-76 278.5z" />
<glyph unicode="&#xaa;" horiz-adv-x="714" d="M70 811q0 69 31.5 118.5t86 75.5t114.5 37t130 11h47v24q0 73 -33.5 102t-117.5 29q-101 0 -193 -45l-16 105q114 43 221 43q130 0 191 -53.5t61 -182.5v-313q0 -29 13 -40t42 -11v-86q-28 -7 -57 -7q-39 0 -65 17t-33 49q-85 -76 -207 -76q-102 0 -158.5 54t-56.5 149z M186 813q0 -49 30 -78.5t85 -29.5q48 0 96.5 19t81.5 52v180h-61q-232 0 -232 -143z" />
<glyph unicode="&#xab;" horiz-adv-x="1075" d="M115 498l344 475l98 -64l-299 -411l297 -410l-96 -63zM514 498l344 475l98 -64l-299 -411l297 -410l-96 -63z" />
<glyph unicode="&#xac;" d="M123 508v121h778v-465h-125v344h-653z" />
<glyph unicode="&#xad;" horiz-adv-x="575" d="M102 455v120h371v-120h-371z" />
<glyph unicode="&#xae;" horiz-adv-x="1529" d="M104 680q0 190 84.5 344.5t237 244t342.5 89.5q142 0 265.5 -52.5t210.5 -142.5t136.5 -215.5t49.5 -267.5q0 -191 -84.5 -346t-236.5 -244.5t-341 -89.5q-190 0 -342.5 89.5t-237 244.5t-84.5 346zM223 680q0 -155 67 -283.5t192.5 -206t285.5 -77.5q159 0 284 77.5 t192 206t67 283.5q0 153 -67 280.5t-192 204t-284 76.5q-160 0 -285.5 -76.5t-192.5 -203.5t-67 -281zM557 301v750h188q148 0 213.5 -55t65.5 -181q0 -168 -117 -217l133 -297h-122l-113 272q-23 -2 -70 -2h-57v-270h-121zM678 680h74q86 0 116.5 27t30.5 108 q0 70 -32.5 97.5t-114.5 27.5h-74v-260z" />
<glyph unicode="&#xaf;" horiz-adv-x="657" d="M74 1217v116h508v-116h-508z" />
<glyph unicode="&#xb0;" horiz-adv-x="552" d="M45 1223q0 100 58 167.5t173 67.5q113 0 171.5 -67.5t58.5 -167.5q0 -116 -61 -176t-169 -60t-169.5 60t-61.5 176zM162 1223q0 -136 114 -136q115 0 115 136q0 135 -115 135q-114 0 -114 -135z" />
<glyph unicode="&#xb1;" d="M123 0v115h776v-115h-776zM123 623v120h326v324h126v-324h324v-120h-324v-326h-126v326h-326z" />
<glyph unicode="&#xb2;" horiz-adv-x="638" d="M76 920l94 86q99 91 150.5 147.5t79.5 112.5t28 116q0 64 -33.5 93.5t-103.5 29.5q-79 0 -187 -41l-26 99q112 49 225 49q118 0 180 -57.5t62 -157.5q0 -108 -75 -217.5t-249 -255.5h326v-99h-463z" />
<glyph unicode="&#xb3;" horiz-adv-x="638" d="M70 852l24 100q96 -41 180 -41q86 0 125 31q41 31 41 109q0 67 -37 94q-47 35 -149 35h-39v92h41q158 0 158 131q0 102 -127 102q-71 0 -170 -30l-19 98q97 39 199 39q233 0 233 -197q0 -131 -100 -180q59 -15 94 -63t35 -115q0 -123 -70 -186.5t-206 -63.5 q-107 0 -213 45z" />
<glyph unicode="&#xb4;" horiz-adv-x="657" d="M96 1210l385 254l80 -121l-407 -229z" />
<glyph unicode="&#xb6;" d="M90 1087q0 153 93.5 239.5t250.5 86.5h486v-1620h-123v1520h-232v-1520h-125v981q-158 0 -254 88t-96 225z" />
<glyph unicode="&#xb7;" horiz-adv-x="405" d="M104 510v22q0 56 27 85.5t72 29.5q46 0 72 -29.5t26 -85.5v-22q0 -58 -25.5 -87.5t-72.5 -29.5q-46 0 -72.5 30t-26.5 87z" />
<glyph unicode="&#xb8;" horiz-adv-x="657" d="M131 -451l25 99q70 -21 133 -21q58 0 83 19t25 59q0 44 -32 65t-111 21q-27 0 -43 -2l-10 12l61 236l109 -10l-33 -146q188 -12 188 -170q0 -89 -61 -138.5t-164 -49.5q-94 0 -170 26z" />
<glyph unicode="&#xb9;" horiz-adv-x="638" d="M61 1456l232 137h98v-669h170v-99h-465v99h183v528l-181 -98z" />
<glyph unicode="&#xba;" horiz-adv-x="739" d="M68 954v11q0 166 76.5 256t226.5 90q149 0 225 -90.5t76 -255.5v-11q0 -165 -76 -255.5t-225 -90.5q-150 0 -226.5 90t-76.5 256zM184 961q0 -134 47.5 -191t139.5 -57q91 0 137.5 57t46.5 191q0 132 -46.5 188.5t-137.5 56.5q-92 0 -139.5 -56.5t-47.5 -188.5z" />
<glyph unicode="&#xbb;" horiz-adv-x="1075" d="M119 909l98 64l344 -475l-344 -473l-96 63l297 410zM518 909l98 64l345 -475l-345 -473l-96 63l297 410z" />
<glyph unicode="&#xbc;" horiz-adv-x="1640" d="M104 1257l232 138h98v-670h170v-98h-465v98h183v528l-181 -98zM438 39l682 1399l119 -52l-684 -1396zM920 180v84q65 99 175 241t203 251h93v-475h116v-101h-116v-194h-115v194h-356zM1042 281h234v301q-95 -112 -234 -301z" />
<glyph unicode="&#xbd;" horiz-adv-x="1640" d="M104 1257l232 138h98v-670h170v-98h-465v98h183v528l-181 -98zM438 39l682 1399l119 -52l-684 -1396zM1069 82l94 84q146 135 202 213.5t56 165.5q0 123 -137 123q-78 0 -186 -41l-27 98q107 47 225 47t180 -56.5t62 -156.5q0 -108 -75 -217.5t-249 -255.5h326v-100h-463 z" />
<glyph unicode="&#xbe;" horiz-adv-x="1640" d="M125 653l25 101q96 -41 180 -41q88 0 125 30q41 31 41 109q0 67 -37 94q-47 35 -150 35h-39v92h41q158 0 158 131q0 103 -127 103q-67 0 -170 -31l-18 98q97 39 198 39q234 0 234 -196q0 -132 -101 -181q59 -15 94 -63t35 -115q0 -123 -70 -186.5t-206 -63.5 q-107 0 -213 45zM438 39l682 1399l119 -52l-684 -1396zM920 180v84q65 99 175 241t203 251h93v-475h116v-101h-116v-194h-115v194h-356zM1042 281h234v301q-95 -112 -234 -301z" />
<glyph unicode="&#xbf;" horiz-adv-x="858" d="M94 -37q0 179 98 282t275 103l20 264h103l16 -372h-63q-168 0 -244 -66t-76 -215q0 -135 69.5 -198.5t207.5 -63.5t262 51l14 -113q-135 -55 -295 -55q-179 0 -283 94.5t-104 288.5zM459 903v21q0 51 17.5 76.5t60.5 25.5q42 0 59.5 -26t17.5 -76v-21q0 -49 -17.5 -73.5 t-59.5 -24.5q-43 0 -60.5 24.5t-17.5 73.5z" />
<glyph unicode="&#xc0;" horiz-adv-x="1173" d="M51 0q170 580 467 1380h141q259 -674 463 -1380h-143q-49 177 -90 307h-600q-10 -28 -92 -307h-146zM309 1700l78 121l387 -254l-59 -94zM330 440h516q-106 349 -256 764h-4q-146 -421 -256 -764z" />
<glyph unicode="&#xc1;" horiz-adv-x="1173" d="M51 0q170 580 467 1380h141q259 -674 463 -1380h-143q-49 177 -90 307h-600q-10 -28 -92 -307h-146zM330 440h516q-106 349 -256 764h-4q-146 -421 -256 -764zM434 1567l385 254l80 -121l-407 -227z" />
<glyph unicode="&#xc2;" horiz-adv-x="1173" d="M51 0q170 580 467 1380h141q259 -674 463 -1380h-143q-49 177 -90 307h-600q-10 -28 -92 -307h-146zM299 1597l246 246h86l246 -246l-93 -73l-190 186h-12l-195 -186zM330 440h516q-106 349 -256 764h-4q-146 -421 -256 -764z" />
<glyph unicode="&#xc3;" horiz-adv-x="1173" d="M51 0q170 580 467 1380h141q259 -674 463 -1380h-143q-49 177 -90 307h-600q-10 -28 -92 -307h-146zM281 1645q41 83 91.5 124t100.5 41q36 0 63.5 -12.5t63.5 -40.5l35 -24q49 -33 84 -33q56 0 100 86l74 -70q-27 -66 -73.5 -104.5t-106.5 -38.5q-58 0 -127 49l-31 20 q-20 15 -28.5 20.5t-22.5 11t-29 5.5q-62 0 -113 -104zM330 440h516q-106 349 -256 764h-4q-146 -421 -256 -764z" />
<glyph unicode="&#xc4;" horiz-adv-x="1173" d="M51 0q170 580 467 1380h141q259 -674 463 -1380h-143q-49 177 -90 307h-600q-10 -28 -92 -307h-146zM330 440h516q-106 349 -256 764h-4q-146 -421 -256 -764zM330 1661v10q0 50 27.5 76.5t68.5 26.5q45 0 71.5 -26t26.5 -77v-10q0 -51 -26.5 -76.5t-71.5 -25.5 q-41 0 -68.5 26t-27.5 76zM649 1661v10q0 50 29 76.5t70 26.5q43 0 70.5 -26.5t27.5 -76.5v-10q0 -50 -27 -76t-71 -26q-41 0 -70 26t-29 76z" />
<glyph unicode="&#xc5;" horiz-adv-x="1173" d="M51 0q170 580 467 1380h141q259 -674 463 -1380h-143q-49 177 -90 307h-600q-10 -28 -92 -307h-146zM330 440h516q-106 349 -256 764h-4q-146 -421 -256 -764zM412 1698q0 76 50.5 127t125.5 51q76 0 126 -50.5t50 -127.5q0 -75 -50 -125.5t-126 -50.5q-75 0 -125.5 50.5 t-50.5 125.5zM506 1698q0 -37 22 -60.5t60 -23.5t60 23.5t22 60.5q0 39 -22 62.5t-60 23.5t-60 -23.5t-22 -62.5z" />
<glyph unicode="&#xc6;" horiz-adv-x="1619" d="M49 0q117 279 327.5 710.5t342.5 669.5h809l-10 -133h-582v-465h508v-133h-508v-516h582v-133h-717v307h-463q-71 -154 -133 -307h-156zM397 440h404v807h-21q-70 -135 -196 -401.5t-187 -405.5z" />
<glyph unicode="&#xc7;" horiz-adv-x="1126" d="M106 688v10q0 348 149 531.5t439 183.5q193 0 363 -94l-37 -135q-164 92 -330 92q-217 0 -327.5 -148.5t-110.5 -433.5q0 -594 428 -594q185 0 338 78l35 -121q-67 -38 -168 -63.5t-203 -26.5l-18 -86q188 -12 188 -170q0 -89 -61 -138.5t-164 -49.5q-94 0 -170 26l24 99 q71 -21 133 -21q58 0 83.5 19.5t25.5 58.5q0 44 -32 65t-111 21q-27 0 -43 -2l-11 12l45 174q-102 14 -181 57t-132 106.5t-87.5 151t-49.5 185.5t-15 213z" />
<glyph unicode="&#xc8;" horiz-adv-x="1038" d="M178 0v1380h768l-10 -133h-623v-465h547v-133h-547v-516h623v-133h-758zM307 1700l78 121l387 -254l-59 -94z" />
<glyph unicode="&#xc9;" horiz-adv-x="1038" d="M178 0v1380h768l-10 -133h-623v-465h547v-133h-547v-516h623v-133h-758zM406 1567l385 254l79 -121l-407 -227z" />
<glyph unicode="&#xca;" horiz-adv-x="1038" d="M178 0v1380h768l-10 -133h-623v-465h547v-133h-547v-516h623v-133h-758zM295 1597l246 246h86l245 -246l-92 -73l-190 186h-12l-195 -186z" />
<glyph unicode="&#xcb;" horiz-adv-x="1038" d="M178 0v1380h768l-10 -133h-623v-465h547v-133h-547v-516h623v-133h-758zM305 1661v10q0 50 27.5 76.5t68.5 26.5q45 0 72 -26t27 -77v-10q0 -51 -27 -76.5t-72 -25.5q-41 0 -68.5 26t-27.5 76zM625 1661v10q0 50 28.5 76.5t69.5 26.5q43 0 70.5 -26.5t27.5 -76.5v-10 q0 -50 -27 -76t-71 -26q-41 0 -69.5 26t-28.5 76z" />
<glyph unicode="&#xcc;" horiz-adv-x="503" d="M-23 1700l78 121l387 -254l-59 -94zM184 0v1380h135v-1380h-135z" />
<glyph unicode="&#xcd;" horiz-adv-x="503" d="M98 1567l385 254l80 -121l-407 -227zM184 0v1380h135v-1380h-135z" />
<glyph unicode="&#xce;" horiz-adv-x="503" d="M-37 1597l246 246h86l246 -246l-92 -73l-191 186h-12l-195 -186zM184 0v1380h135v-1380h-135z" />
<glyph unicode="&#xcf;" horiz-adv-x="503" d="M-6 1661v10q0 50 27.5 76.5t68.5 26.5q45 0 71.5 -26t26.5 -77v-10q0 -51 -26.5 -76.5t-71.5 -25.5q-41 0 -68.5 26t-27.5 76zM184 0v1380h135v-1380h-135zM313 1661v10q0 50 29 76.5t70 26.5q43 0 70.5 -26.5t27.5 -76.5v-10q0 -50 -27 -76t-71 -26q-41 0 -70 26t-29 76 z" />
<glyph unicode="&#xd0;" horiz-adv-x="1267" d="M37 633v133h141v614h303q256 0 391 -55q289 -124 289 -620v-19q0 -408 -196 -575q-79 -64 -197 -87.5t-303 -23.5h-287v633h-141zM313 133h211q141 0 227 24.5t146 84.5q119 122 119 454q0 345 -139 463q-57 48 -144.5 68t-218.5 20h-201v-481h299v-133h-299v-500z" />
<glyph unicode="&#xd1;" horiz-adv-x="1378" d="M178 0v1380h127l766 -1128h2v1128h127v-1380h-108l-785 1143h-2v-1143h-127zM387 1645q41 82 92 123.5t101 41.5q36 0 63.5 -12.5t63.5 -40.5l34 -24q49 -33 84 -33q57 0 101 86l73 -70q-27 -66 -73.5 -104.5t-106.5 -38.5q-58 0 -127 49l-30 20q-20 15 -28.5 20.5 t-22.5 11t-29 5.5q-62 0 -113 -104z" />
<glyph unicode="&#xd2;" horiz-adv-x="1267" d="M106 680v20q0 126 17.5 231t57 195.5t100 153t150.5 98t204 35.5q141 0 244.5 -53t164 -151.5t89 -224.5t28.5 -284v-20q0 -158 -28.5 -284t-89 -224.5t-164 -151.5t-244.5 -53q-114 0 -204 35.5t-150.5 98t-100 153t-57 195.5t-17.5 231zM252 692q0 -294 88.5 -443 t294.5 -149q205 0 293 147.5t88 442.5q0 294 -88 442t-293 148q-206 0 -294.5 -147.5t-88.5 -440.5zM393 1700l78 121l387 -254l-59 -94z" />
<glyph unicode="&#xd3;" horiz-adv-x="1267" d="M106 680v20q0 126 17.5 231t57 195.5t100 153t150.5 98t204 35.5q141 0 244.5 -53t164 -151.5t89 -224.5t28.5 -284v-20q0 -158 -28.5 -284t-89 -224.5t-164 -151.5t-244.5 -53q-114 0 -204 35.5t-150.5 98t-100 153t-57 195.5t-17.5 231zM252 692q0 -294 88.5 -443 t294.5 -149q205 0 293 147.5t88 442.5q0 294 -88 442t-293 148q-206 0 -294.5 -147.5t-88.5 -440.5zM463 1567l385 254l80 -121l-408 -227z" />
<glyph unicode="&#xd4;" horiz-adv-x="1267" d="M106 680v20q0 126 17.5 231t57 195.5t100 153t150.5 98t204 35.5q141 0 244.5 -53t164 -151.5t89 -224.5t28.5 -284v-20q0 -158 -28.5 -284t-89 -224.5t-164 -151.5t-244.5 -53q-114 0 -204 35.5t-150.5 98t-100 153t-57 195.5t-17.5 231zM252 692q0 -294 88.5 -443 t294.5 -149q205 0 293 147.5t88 442.5q0 294 -88 442t-293 148q-206 0 -294.5 -147.5t-88.5 -440.5zM350 1597l246 246h86l246 -246l-92 -73l-191 186h-12l-195 -186z" />
<glyph unicode="&#xd5;" horiz-adv-x="1267" d="M106 680v20q0 126 17.5 231t57 195.5t100 153t150.5 98t204 35.5q141 0 244.5 -53t164 -151.5t89 -224.5t28.5 -284v-20q0 -158 -28.5 -284t-89 -224.5t-164 -151.5t-244.5 -53q-114 0 -204 35.5t-150.5 98t-100 153t-57 195.5t-17.5 231zM252 692q0 -294 88.5 -443 t294.5 -149q205 0 293 147.5t88 442.5q0 294 -88 442t-293 148q-206 0 -294.5 -147.5t-88.5 -440.5zM336 1645q41 83 91.5 124t100.5 41q36 0 63.5 -12.5t63.5 -40.5l35 -24q50 -33 84 -33q56 0 100 86l74 -70q-27 -66 -73.5 -104.5t-106.5 -38.5q-58 0 -127 49l-31 20 q-20 15 -28.5 20.5t-22.5 11t-29 5.5q-61 0 -112 -104z" />
<glyph unicode="&#xd6;" horiz-adv-x="1267" d="M106 680v20q0 126 17.5 231t57 195.5t100 153t150.5 98t204 35.5q141 0 244.5 -53t164 -151.5t89 -224.5t28.5 -284v-20q0 -158 -28.5 -284t-89 -224.5t-164 -151.5t-244.5 -53q-114 0 -204 35.5t-150.5 98t-100 153t-57 195.5t-17.5 231zM252 692q0 -294 88.5 -443 t294.5 -149q205 0 293 147.5t88 442.5q0 294 -88 442t-293 148q-206 0 -294.5 -147.5t-88.5 -440.5zM379 1661v10q0 50 27.5 76.5t68.5 26.5q45 0 71.5 -26t26.5 -77v-10q0 -51 -26.5 -76.5t-71.5 -25.5q-41 0 -68.5 26t-27.5 76zM698 1661v10q0 50 29 76.5t70 26.5 q43 0 70.5 -26.5t27.5 -76.5v-10q0 -50 -27 -76t-71 -26q-41 0 -70 26t-29 76z" />
<glyph unicode="&#xd7;" d="M133 877l90 84l303 -304l305 304l84 -84l-301 -308l299 -297l-84 -90l-303 303l-303 -303l-86 86l303 303z" />
<glyph unicode="&#xd8;" horiz-adv-x="1267" d="M106 680v20q0 126 17.5 231t57 195.5t100 153t150.5 98t204 35.5q136 0 239 -53l93 209l104 -47l-100 -230q190 -179 190 -592v-20q0 -158 -28.5 -284t-89 -224.5t-164 -151.5t-244.5 -53q-129 0 -227 45l-95 -217l-104 55l98 226q-201 175 -201 604zM252 692 q0 -344 117 -481l450 1024q-79 45 -184 45q-206 0 -294.5 -147.5t-88.5 -440.5zM463 135q72 -35 172 -35q205 0 293 147.5t88 442.5q0 323 -107 467z" />
<glyph unicode="&#xd9;" horiz-adv-x="1302" d="M172 498v882h135v-868q0 -213 76.5 -312.5t267.5 -99.5t267.5 99.5t76.5 312.5v868h135v-882q0 -268 -111 -399.5t-368 -131.5q-256 0 -367.5 132t-111.5 399zM395 1700l78 121l387 -254l-59 -94z" />
<glyph unicode="&#xda;" horiz-adv-x="1302" d="M172 498v882h135v-868q0 -213 76.5 -312.5t267.5 -99.5t267.5 99.5t76.5 312.5v868h135v-882q0 -268 -111 -399.5t-368 -131.5q-256 0 -367.5 132t-111.5 399zM463 1567l385 254l80 -121l-408 -227z" />
<glyph unicode="&#xdb;" horiz-adv-x="1302" d="M172 498v882h135v-868q0 -213 76.5 -312.5t267.5 -99.5t267.5 99.5t76.5 312.5v868h135v-882q0 -268 -111 -399.5t-368 -131.5q-256 0 -367.5 132t-111.5 399zM373 1597l245 246h87l245 -246l-92 -73l-190 186h-13l-194 -186z" />
<glyph unicode="&#xdc;" horiz-adv-x="1302" d="M172 498v882h135v-868q0 -213 76.5 -312.5t267.5 -99.5t267.5 99.5t76.5 312.5v868h135v-882q0 -268 -111 -399.5t-368 -131.5q-256 0 -367.5 132t-111.5 399zM395 1661v10q0 50 28 76.5t69 26.5q45 0 71.5 -26t26.5 -77v-10q0 -51 -26.5 -76.5t-71.5 -25.5q-41 0 -69 26 t-28 76zM715 1661v10q0 50 28.5 76.5t69.5 26.5q43 0 70.5 -26.5t27.5 -76.5v-10q0 -50 -27 -76t-71 -26q-41 0 -69.5 26t-28.5 76z" />
<glyph unicode="&#xdd;" horiz-adv-x="1048" d="M53 1380h150q145 -442 317 -780h6q189 371 320 780h149q-157 -468 -405 -927v-453h-131v455q-255 461 -406 925zM377 1567l385 254l80 -121l-408 -227z" />
<glyph unicode="&#xde;" horiz-adv-x="1079" d="M178 0v1380h135v-237h152q149 0 256 -26.5t174 -94.5q100 -103 100 -307q0 -225 -123 -336q-111 -100 -348 -100h-211v-279h-135zM313 412h189q71 0 121 6.5t95.5 25t72.5 51.5t43 88t16 132q0 157 -94 233q-82 62 -256 62h-187v-598z" />
<glyph unicode="&#xdf;" horiz-adv-x="1019" d="M137 -297v1681q152 48 303 48q86 0 159 -20.5t130 -61.5t89 -109t32 -156q0 -105 -50.5 -187.5t-142.5 -115.5v-4q140 -32 210.5 -130t70.5 -218q0 -102 -37.5 -184.5t-101.5 -135.5t-147 -81.5t-177 -28.5q-28 0 -74 4l5 98q25 -2 43 -2q161 0 260.5 84t99.5 244 q0 139 -92 216t-242 77v100q122 8 187 72t65 184q0 124 -79.5 184t-207.5 60q-97 0 -180 -27v-1591h-123z" />
<glyph unicode="&#xe0;" horiz-adv-x="991" d="M80 260q0 95 49.5 174t140.5 121q134 61 383 61h62v56q0 124 -58 183.5t-206 59.5q-65 0 -141 -18t-136 -45l-20 109q147 65 319 65q175 0 270 -84.5t95 -261.5v-496q0 -64 11.5 -86t59.5 -22h9v-82q-23 -10 -68 -10q-49 0 -86 26t-45 82q-138 -125 -330 -125 q-132 0 -220.5 79t-88.5 214zM211 268q0 -81 53 -134.5t152 -53.5q88 0 170 39.5t129 95.5v301h-70q-150 0 -254 -29q-80 -27 -130 -82t-50 -137zM256 1343l78 121l387 -254l-59 -96z" />
<glyph unicode="&#xe1;" horiz-adv-x="991" d="M80 260q0 95 49.5 174t140.5 121q134 61 383 61h62v56q0 124 -58 183.5t-206 59.5q-65 0 -141 -18t-136 -45l-20 109q147 65 319 65q175 0 270 -84.5t95 -261.5v-496q0 -64 11.5 -86t59.5 -22h9v-82q-23 -10 -68 -10q-49 0 -86 26t-45 82q-138 -125 -330 -125 q-132 0 -220.5 79t-88.5 214zM211 268q0 -81 53 -134.5t152 -53.5q88 0 170 39.5t129 95.5v301h-70q-150 0 -254 -29q-80 -27 -130 -82t-50 -137zM295 1210l385 254l80 -121l-408 -229z" />
<glyph unicode="&#xe2;" horiz-adv-x="991" d="M80 260q0 95 49.5 174t140.5 121q134 61 383 61h62v56q0 124 -58 183.5t-206 59.5q-65 0 -141 -18t-136 -45l-20 109q147 65 319 65q175 0 270 -84.5t95 -261.5v-496q0 -64 11.5 -86t59.5 -22h9v-82q-23 -10 -68 -10q-49 0 -86 26t-45 82q-138 -125 -330 -125 q-132 0 -220.5 79t-88.5 214zM209 1239l246 248h86l245 -248l-92 -74l-190 189h-12l-195 -189zM211 268q0 -81 53 -134.5t152 -53.5q88 0 170 39.5t129 95.5v301h-70q-150 0 -254 -29q-80 -27 -130 -82t-50 -137z" />
<glyph unicode="&#xe3;" horiz-adv-x="991" d="M80 260q0 95 49.5 174t140.5 121q134 61 383 61h62v56q0 124 -58 183.5t-206 59.5q-65 0 -141 -18t-136 -45l-20 109q147 65 319 65q175 0 270 -84.5t95 -261.5v-496q0 -64 11.5 -86t59.5 -22h9v-82q-23 -10 -68 -10q-49 0 -86 26t-45 82q-138 -125 -330 -125 q-132 0 -220.5 79t-88.5 214zM193 1286q41 82 91.5 123t100.5 41q35 0 62.5 -12t64.5 -39l35 -27q52 -31 84 -31q57 0 100 84l74 -67q-27 -67 -73.5 -105.5t-106.5 -38.5q-59 0 -127 48l-31 22q-3 2 -14 9t-14 9t-11.5 6.5t-13.5 6t-12 3t-15 1.5q-63 0 -113 -102zM211 268 q0 -81 53 -134.5t152 -53.5q88 0 170 39.5t129 95.5v301h-70q-150 0 -254 -29q-80 -27 -130 -82t-50 -137z" />
<glyph unicode="&#xe4;" horiz-adv-x="991" d="M80 260q0 95 49.5 174t140.5 121q134 61 383 61h62v56q0 124 -58 183.5t-206 59.5q-65 0 -141 -18t-136 -45l-20 109q147 65 319 65q175 0 270 -84.5t95 -261.5v-496q0 -64 11.5 -86t59.5 -22h9v-82q-23 -10 -68 -10q-49 0 -86 26t-45 82q-138 -125 -330 -125 q-132 0 -220.5 79t-88.5 214zM211 268q0 -81 53 -134.5t152 -53.5q88 0 170 39.5t129 95.5v301h-70q-150 0 -254 -29q-80 -27 -130 -82t-50 -137zM233 1303v10q0 50 28 77t69 27q44 0 71 -26.5t27 -77.5v-10q0 -51 -26.5 -76t-71.5 -25q-41 0 -69 25.5t-28 75.5zM553 1303 v10q0 50 28.5 77t69.5 27q43 0 71 -27t28 -77v-10q0 -50 -27.5 -75.5t-71.5 -25.5q-41 0 -69.5 25.5t-28.5 75.5z" />
<glyph unicode="&#xe5;" horiz-adv-x="991" d="M80 260q0 95 49.5 174t140.5 121q134 61 383 61h62v56q0 124 -58 183.5t-206 59.5q-65 0 -141 -18t-136 -45l-20 109q147 65 319 65q175 0 270 -84.5t95 -261.5v-496q0 -64 11.5 -86t59.5 -22h9v-82q-23 -10 -68 -10q-49 0 -86 26t-45 82q-138 -125 -330 -125 q-132 0 -220.5 79t-88.5 214zM211 268q0 -81 53 -134.5t152 -53.5q88 0 170 39.5t129 95.5v301h-70q-150 0 -254 -29q-80 -27 -130 -82t-50 -137zM319 1341q0 75 51 126t126 51q76 0 126 -51t50 -126q0 -77 -50 -127.5t-126 -50.5q-75 0 -126 51t-51 127zM414 1341 q0 -39 22 -62.5t60 -23.5t60 23.5t22 62.5q0 37 -22 60.5t-60 23.5t-60 -23.5t-22 -60.5z" />
<glyph unicode="&#xe6;" horiz-adv-x="1650" d="M80 260q0 95 49.5 170.5t140.5 116.5q134 61 389 61h62v64q0 124 -58 183.5t-206 59.5q-136 0 -277 -63l-20 109q147 65 319 65q256 0 336 -178q114 178 334 178q336 0 397 -373q10 -59 10 -147v-41h-706q11 -180 95.5 -281.5t238.5 -101.5q73 0 151.5 17t130.5 44 l21 -108q-136 -68 -309 -68q-209 0 -318 109q-33 33 -53 67q-152 -176 -401 -176q-143 0 -234.5 78.5t-91.5 214.5zM217 268q0 -81 53 -134.5t152 -53.5q100 0 189 45t149 121q-39 107 -39 252v10h-70q-150 0 -254 -29q-180 -59 -180 -211zM852 571h571q-12 336 -268 336 q-124 0 -197 -76q-50 -49 -75 -110.5t-31 -149.5z" />
<glyph unicode="&#xe7;" horiz-adv-x="909" d="M96 487v7q0 254 115.5 393t337.5 139q161 0 287 -78l-21 -119q-41 31 -113 54.5t-145 23.5q-330 0 -330 -411q0 -207 76.5 -310.5t243.5 -103.5q145 0 264 61l20 -108q-128 -62 -268 -68l-20 -86q188 -12 188 -170q0 -89 -62 -138.5t-165 -49.5q-92 0 -168 26l24 99 q70 -21 134 -21q57 0 82.5 19.5t25.5 58.5q0 49 -41 69.5t-145 14.5l-10 12l43 172q-138 19 -220 101q-133 133 -133 413z" />
<glyph unicode="&#xe8;" d="M96 489v5q0 102 24.5 193.5t73.5 169t133.5 123.5t194.5 46q340 0 398 -373q12 -71 12 -168v-43h-703q19 -360 330 -360q69 0 149.5 17.5t131.5 43.5l20 -108q-62 -31 -145 -49.5t-162 -18.5q-211 0 -317 109q-140 140 -140 413zM227 551h572q-8 169 -75 262.5t-196 93.5 q-123 0 -196 -76q-92 -92 -105 -280zM287 1343l78 121l387 -254l-60 -96z" />
<glyph unicode="&#xe9;" d="M96 489v5q0 102 24.5 193.5t73.5 169t133.5 123.5t194.5 46q340 0 398 -373q12 -71 12 -168v-43h-703q19 -360 330 -360q69 0 149.5 17.5t131.5 43.5l20 -108q-62 -31 -145 -49.5t-162 -18.5q-211 0 -317 109q-140 140 -140 413zM227 551h572q-8 169 -75 262.5t-196 93.5 q-123 0 -196 -76q-92 -92 -105 -280zM338 1210l385 254l80 -121l-408 -229z" />
<glyph unicode="&#xea;" d="M96 489v5q0 102 24.5 193.5t73.5 169t133.5 123.5t194.5 46q340 0 398 -373q12 -71 12 -168v-43h-703q19 -360 330 -360q69 0 149.5 17.5t131.5 43.5l20 -108q-62 -31 -145 -49.5t-162 -18.5q-211 0 -317 109q-140 140 -140 413zM227 551h572q-8 169 -75 262.5t-196 93.5 q-123 0 -196 -76q-92 -92 -105 -280zM248 1239l246 248h86l245 -248l-92 -74l-190 189h-13l-194 -189z" />
<glyph unicode="&#xeb;" d="M96 489v5q0 102 24.5 193.5t73.5 169t133.5 123.5t194.5 46q340 0 398 -373q12 -71 12 -168v-43h-703q19 -360 330 -360q69 0 149.5 17.5t131.5 43.5l20 -108q-62 -31 -145 -49.5t-162 -18.5q-211 0 -317 109q-140 140 -140 413zM227 551h572q-8 169 -75 262.5t-196 93.5 q-123 0 -196 -76q-92 -92 -105 -280zM276 1303v10q0 50 28 77t69 27q44 0 71 -26.5t27 -77.5v-10q0 -51 -26.5 -76t-71.5 -25q-41 0 -69 25.5t-28 75.5zM596 1303v10q0 50 28.5 77t69.5 27q43 0 71 -27t28 -77v-10q0 -50 -27.5 -75.5t-71.5 -25.5q-41 0 -69.5 25.5 t-28.5 75.5z" />
<glyph unicode="&#xec;" horiz-adv-x="430" d="M-53 1343l78 121l387 -254l-60 -96zM154 0v993h122v-993h-122z" />
<glyph unicode="&#xed;" horiz-adv-x="430" d="M47 1210l385 254l80 -121l-408 -229zM154 0v993h122v-993h-122z" />
<glyph unicode="&#xee;" horiz-adv-x="430" d="M-74 1239l246 248h86l246 -248l-92 -74l-191 189h-12l-195 -189zM154 0v993h122v-993h-122z" />
<glyph unicode="&#xef;" horiz-adv-x="430" d="M-43 1303v10q0 50 27.5 77t68.5 27q45 0 72 -26.5t27 -77.5v-10q0 -50 -27 -75.5t-72 -25.5q-41 0 -68.5 25.5t-27.5 75.5zM154 0v993h122v-993h-122zM276 1303v10q0 50 29 77t70 27q43 0 70.5 -27t27.5 -77v-10q0 -50 -27 -75.5t-71 -25.5q-42 0 -70.5 26t-28.5 75z" />
<glyph unicode="&#xf0;" horiz-adv-x="1013" d="M96 496q0 113 23 205t69.5 162t123 108.5t177.5 38.5q127 0 252 -95q-56 214 -225 330l-166 -129l-57 66l139 110q-91 48 -190 72l90 63q100 -26 184 -69l137 110l60 -67l-113 -88q151 -98 228 -276t77 -459q0 -199 -39 -331.5t-130.5 -206t-237.5 -73.5 q-185 0 -293.5 141.5t-108.5 387.5zM225 500q0 -198 75 -308t206 -110q141 0 205.5 113.5t64.5 369.5q0 137 -14 238q-122 98 -256 98q-141 0 -211 -98.5t-70 -302.5z" />
<glyph unicode="&#xf1;" horiz-adv-x="1077" d="M137 0v993h101l16 -125q75 75 169 116.5t191 41.5q169 0 248 -82q84 -84 84 -285v-659h-123v637q0 158 -55 213q-48 53 -168 53q-86 0 -177.5 -43.5t-162.5 -120.5v-739h-123zM254 1286q41 82 91.5 123t100.5 41q35 0 62.5 -12t64.5 -39l35 -27q52 -31 84 -31 q58 0 101 84l73 -67q-27 -67 -73.5 -105.5t-106.5 -38.5q-59 0 -127 48l-31 22q-5 3 -14.5 9.5t-13.5 9t-11.5 6.5t-12.5 5.5t-12 3t-15 1.5q-63 0 -113 -102z" />
<glyph unicode="&#xf2;" horiz-adv-x="1062" d="M96 496v2q0 257 108.5 392.5t325.5 135.5q219 0 328 -134.5t109 -391.5v-4q0 -257 -109.5 -393t-327.5 -136q-217 0 -325.5 136t-108.5 393zM227 496q0 -208 74.5 -313t230.5 -105t230 104.5t74 313.5q0 210 -74 314.5t-230 104.5t-230.5 -104.5t-74.5 -314.5zM291 1343 l78 121l387 -254l-60 -96z" />
<glyph unicode="&#xf3;" horiz-adv-x="1062" d="M96 496v2q0 257 108.5 392.5t325.5 135.5q219 0 328 -134.5t109 -391.5v-4q0 -257 -109.5 -393t-327.5 -136q-217 0 -325.5 136t-108.5 393zM227 496q0 -208 74.5 -313t230.5 -105t230 104.5t74 313.5q0 210 -74 314.5t-230 104.5t-230.5 -104.5t-74.5 -314.5zM346 1210 l385 254l80 -121l-408 -229z" />
<glyph unicode="&#xf4;" horiz-adv-x="1062" d="M96 496v2q0 257 108.5 392.5t325.5 135.5q219 0 328 -134.5t109 -391.5v-4q0 -257 -109.5 -393t-327.5 -136q-217 0 -325.5 136t-108.5 393zM227 496q0 -208 74.5 -313t230.5 -105t230 104.5t74 313.5q0 210 -74 314.5t-230 104.5t-230.5 -104.5t-74.5 -314.5zM246 1239 l246 248h86l245 -248l-92 -74l-190 189h-13l-194 -189z" />
<glyph unicode="&#xf5;" horiz-adv-x="1062" d="M96 496v2q0 257 108.5 392.5t325.5 135.5q219 0 328 -134.5t109 -391.5v-4q0 -257 -109.5 -393t-327.5 -136q-217 0 -325.5 136t-108.5 393zM227 496q0 -208 74.5 -313t230.5 -105t230 104.5t74 313.5q0 210 -74 314.5t-230 104.5t-230.5 -104.5t-74.5 -314.5zM229 1286 q41 82 92 123t101 41q35 0 62.5 -12t64.5 -39l35 -27q52 -31 84 -31q57 0 100 84l74 -67q-27 -67 -73.5 -105.5t-106.5 -38.5q-59 0 -127 48l-31 22q-3 2 -14 9t-14 9t-11.5 6.5t-13.5 6t-12 3t-15 1.5q-63 0 -113 -102z" />
<glyph unicode="&#xf6;" horiz-adv-x="1062" d="M96 496v2q0 257 108.5 392.5t325.5 135.5q219 0 328 -134.5t109 -391.5v-4q0 -257 -109.5 -393t-327.5 -136q-217 0 -325.5 136t-108.5 393zM227 496q0 -208 74.5 -313t230.5 -105t230 104.5t74 313.5q0 210 -74 314.5t-230 104.5t-230.5 -104.5t-74.5 -314.5zM281 1303 v10q0 50 27.5 77t68.5 27q44 0 71 -26.5t27 -77.5v-10q0 -51 -26.5 -76t-71.5 -25q-41 0 -68.5 25.5t-27.5 75.5zM600 1303v10q0 50 28.5 77t69.5 27q43 0 71 -27t28 -77v-10q0 -50 -27.5 -75.5t-71.5 -25.5q-41 0 -69.5 25.5t-28.5 75.5z" />
<glyph unicode="&#xf7;" d="M123 508v121h778v-121h-778zM422 231v25q0 109 92 109q94 0 94 -109v-25q0 -110 -94 -110q-44 0 -68 28t-24 82zM422 885v22q0 55 24 83t68 28q45 0 69.5 -28t24.5 -83v-22q0 -113 -94 -113q-44 0 -68 28.5t-24 84.5z" />
<glyph unicode="&#xf8;" horiz-adv-x="1062" d="M96 496v2q0 257 108.5 392.5t325.5 135.5q95 0 177 -29l77 170l97 -41l-82 -178q168 -128 168 -448v-4q0 -257 -109.5 -393t-327.5 -136q-94 0 -165 27l-76 -166l-96 43l77 168q-174 123 -174 457zM227 496q0 -239 95 -340l337 737q-58 22 -127 22q-156 0 -230.5 -104.5 t-74.5 -314.5zM412 98q47 -20 120 -20q156 0 230 104.5t74 313.5q0 232 -91 333z" />
<glyph unicode="&#xf9;" horiz-adv-x="1048" d="M131 453v540h123v-538q0 -151 12.5 -216t57.5 -106q65 -55 200 -55q136 0 201 55q45 41 57.5 106t12.5 216v538h123v-540q0 -71 -3 -122t-13 -105t-27 -90.5t-46.5 -71t-71 -54t-100 -31.5t-133.5 -12q-66 0 -118.5 8t-92 26t-69 40.5t-49.5 56.5t-33 69t-19.5 84t-9 95 t-2.5 107zM262 1343l78 121l387 -254l-59 -96z" />
<glyph unicode="&#xfa;" horiz-adv-x="1048" d="M131 453v540h123v-538q0 -151 12.5 -216t57.5 -106q65 -55 200 -55q136 0 201 55q45 41 57.5 106t12.5 216v538h123v-540q0 -71 -3 -122t-13 -105t-27 -90.5t-46.5 -71t-71 -54t-100 -31.5t-133.5 -12q-66 0 -118.5 8t-92 26t-69 40.5t-49.5 56.5t-33 69t-19.5 84t-9 95 t-2.5 107zM348 1210l385 254l80 -121l-407 -229z" />
<glyph unicode="&#xfb;" horiz-adv-x="1048" d="M131 453v540h123v-538q0 -151 12.5 -216t57.5 -106q65 -55 200 -55q136 0 201 55q45 41 57.5 106t12.5 216v538h123v-540q0 -71 -3 -122t-13 -105t-27 -90.5t-46.5 -71t-71 -54t-100 -31.5t-133.5 -12q-66 0 -118.5 8t-92 26t-69 40.5t-49.5 56.5t-33 69t-19.5 84t-9 95 t-2.5 107zM242 1239l245 248h86l246 -248l-92 -74l-190 189h-13l-194 -189z" />
<glyph unicode="&#xfc;" horiz-adv-x="1048" d="M131 453v540h123v-538q0 -151 12.5 -216t57.5 -106q65 -55 200 -55q136 0 201 55q45 41 57.5 106t12.5 216v538h123v-540q0 -71 -3 -122t-13 -105t-27 -90.5t-46.5 -71t-71 -54t-100 -31.5t-133.5 -12q-66 0 -118.5 8t-92 26t-69 40.5t-49.5 56.5t-33 69t-19.5 84t-9 95 t-2.5 107zM266 1303v10q0 50 27.5 77t68.5 27q45 0 72 -26.5t27 -77.5v-10q0 -50 -27 -75.5t-72 -25.5q-41 0 -68.5 25.5t-27.5 75.5zM586 1303v10q0 50 28.5 77t69.5 27q43 0 70.5 -27t27.5 -77v-10q0 -50 -27 -75.5t-71 -25.5q-41 0 -69.5 25.5t-28.5 75.5z" />
<glyph unicode="&#xfd;" horiz-adv-x="1024" d="M131 393v600h123v-587q0 -150 49 -209q57 -76 176 -76q154 0 285 92v780h123v-921q0 -119 -25 -206.5t-81.5 -154t-155 -100t-238.5 -33.5q-43 0 -106 8l8 101q60 -6 90 -6q219 0 305 94q80 93 80 260v57q-145 -92 -303 -92q-101 0 -181.5 47t-117.5 137q-31 70 -31 209z M338 1210l385 254l80 -121l-408 -229z" />
<glyph unicode="&#xfe;" horiz-adv-x="1069" d="M137 -389v1790h123v-492q77 61 160.5 89t152.5 28q176 0 281 -119q119 -132 119 -385v-10q0 -293 -148 -438q-110 -107 -286 -107q-149 0 -279 68v-424h-123zM260 158q52 -34 119.5 -54t126.5 -20q76 0 134.5 22.5t96 61t62 92.5t34 112t9.5 126q0 224 -90 323 q-74 80 -201 80q-155 0 -291 -125v-618z" />
<glyph unicode="&#xff;" horiz-adv-x="1024" d="M131 393v600h123v-587q0 -150 49 -209q57 -76 176 -76q154 0 285 92v780h123v-921q0 -119 -25 -206.5t-81.5 -154t-155 -100t-238.5 -33.5q-43 0 -106 8l8 101q60 -6 90 -6q219 0 305 94q80 93 80 260v57q-145 -92 -303 -92q-101 0 -181.5 47t-117.5 137q-31 70 -31 209z M252 1303v10q0 50 27.5 77t68.5 27q44 0 71 -26.5t27 -77.5v-10q0 -51 -26.5 -76t-71.5 -25q-41 0 -68.5 25.5t-27.5 75.5zM571 1303v10q0 50 29 77t70 27q43 0 70.5 -27t27.5 -77v-10q0 -50 -27 -75.5t-71 -25.5q-42 0 -70.5 26t-28.5 75z" />
<glyph unicode="&#x152;" horiz-adv-x="1699" d="M106 680v20q0 125 18 231t57.5 196t99.5 152.5t148.5 98t199.5 35.5q76 0 141.5 -25.5t101.5 -60.5v53h736l-17 -133h-596v-465h525v-133h-525v-516h600v-133h-727v72q-42 -48 -115.5 -76.5t-150.5 -28.5q-130 0 -227 53.5t-155 151t-86 224.5t-28 284zM252 692 q0 -291 86.5 -441.5t277.5 -150.5q75 0 140 28t104 75v985q-91 94 -231 94q-205 0 -291 -148t-86 -442z" />
<glyph unicode="&#x153;" horiz-adv-x="1767" d="M96 496v2q0 257 108.5 392.5t325.5 135.5q272 0 377 -221q48 105 138.5 163t218.5 58q171 0 270 -95.5t127 -277.5q12 -71 12 -168v-43h-704q22 -360 329 -360q73 0 152.5 17.5t130.5 43.5l21 -108q-62 -31 -145.5 -49.5t-162.5 -18.5q-210 0 -319 109q-41 41 -72 104 q-112 -213 -373 -213q-217 0 -325.5 136t-108.5 393zM227 496q0 -208 74.5 -313t230.5 -105q304 0 304 397v37q-2 202 -76 302.5t-228 100.5q-156 0 -230.5 -104.5t-74.5 -314.5zM967 551h573q-8 170 -75 263t-195 93q-124 0 -197 -76q-93 -93 -106 -280z" />
<glyph unicode="&#x178;" horiz-adv-x="1048" d="M53 1380h150q145 -442 317 -780h6q189 371 320 780h149q-157 -468 -405 -927v-453h-131v455q-255 461 -406 925zM268 1661v10q0 50 28 76.5t69 26.5q45 0 71.5 -26t26.5 -77v-10q0 -51 -26.5 -76.5t-71.5 -25.5q-41 0 -69 26t-28 76zM588 1661v10q0 50 28.5 76.5 t69.5 26.5q43 0 70.5 -26.5t27.5 -76.5v-10q0 -50 -27 -76t-71 -26q-41 0 -69.5 26t-28.5 76z" />
<glyph unicode="&#x2c6;" horiz-adv-x="657" d="M41 1239l246 248h86l245 -248l-92 -74l-190 189h-12l-195 -189z" />
<glyph unicode="&#x2dc;" horiz-adv-x="657" d="M23 1286q41 82 91.5 123t100.5 41q35 0 62.5 -12t64.5 -39l35 -27q52 -31 84 -31q57 0 100 84l74 -67q-27 -67 -73.5 -105.5t-106.5 -38.5q-59 0 -127 48l-31 22q-3 2 -14 9t-14 9t-11.5 6.5t-13.5 6t-12 3t-15 1.5q-63 0 -113 -102z" />
<glyph unicode="&#x2000;" horiz-adv-x="938" />
<glyph unicode="&#x2001;" horiz-adv-x="1876" />
<glyph unicode="&#x2002;" horiz-adv-x="938" />
<glyph unicode="&#x2003;" horiz-adv-x="1876" />
<glyph unicode="&#x2004;" horiz-adv-x="625" />
<glyph unicode="&#x2005;" horiz-adv-x="469" />
<glyph unicode="&#x2006;" horiz-adv-x="312" />
<glyph unicode="&#x2007;" horiz-adv-x="312" />
<glyph unicode="&#x2008;" horiz-adv-x="234" />
<glyph unicode="&#x2009;" horiz-adv-x="375" />
<glyph unicode="&#x200a;" horiz-adv-x="104" />
<glyph unicode="&#x2010;" horiz-adv-x="575" d="M102 455v120h371v-120h-371z" />
<glyph unicode="&#x2011;" horiz-adv-x="575" d="M102 455v120h371v-120h-371z" />
<glyph unicode="&#x2012;" horiz-adv-x="575" d="M102 455v120h371v-120h-371z" />
<glyph unicode="&#x2013;" horiz-adv-x="1005" d="M6 461v108h993v-108h-993z" />
<glyph unicode="&#x2014;" horiz-adv-x="1998" d="M6 461v108h1987v-108h-1987z" />
<glyph unicode="&#x2018;" horiz-adv-x="380" d="M86 1128q0 151 133 414l88 -37q-60 -126 -94 -235q32 -9 54 -39.5t22 -81.5v-29q0 -114 -101 -114q-102 0 -102 122z" />
<glyph unicode="&#x2019;" horiz-adv-x="380" d="M74 1008q60 126 94 235q-32 9 -54 39.5t-22 81.5v29q0 114 101 114q102 0 102 -123q0 -150 -133 -413z" />
<glyph unicode="&#x201a;" horiz-adv-x="380" d="M74 -279q59 124 94 236q-32 9 -54 39.5t-22 81.5v28q0 115 101 115q102 0 102 -123q0 -150 -133 -413z" />
<glyph unicode="&#x201c;" horiz-adv-x="745" d="M86 1128q0 151 133 414l88 -37q-60 -126 -94 -235q32 -9 54 -39.5t22 -81.5v-29q0 -114 -101 -114q-102 0 -102 122zM451 1128q0 151 133 414l88 -37q-60 -126 -94 -235q31 -8 53 -39t22 -82v-29q0 -114 -100 -114q-102 0 -102 122z" />
<glyph unicode="&#x201d;" horiz-adv-x="745" d="M74 1008q60 126 94 235q-32 9 -54 39.5t-22 81.5v29q0 114 101 114q102 0 102 -123q0 -150 -133 -413zM438 1008q60 126 94 235q-31 8 -53 39t-22 82v29q0 114 100 114q102 0 102 -123q0 -150 -133 -413z" />
<glyph unicode="&#x201e;" horiz-adv-x="745" d="M74 -279q59 124 94 236q-32 9 -54 39.5t-22 81.5v28q0 115 101 115q102 0 102 -123q0 -150 -133 -413zM438 -279q59 124 94 236q-31 8 -53 39t-22 82v28q0 115 100 115q102 0 102 -123q0 -150 -133 -413z" />
<glyph unicode="&#x2022;" horiz-adv-x="706" d="M115 512v31q0 131 55 198.5t188 67.5q131 0 182.5 -67t51.5 -199v-31q0 -132 -51.5 -199t-182.5 -67q-133 0 -188 67.5t-55 198.5z" />
<glyph unicode="&#x2026;" horiz-adv-x="1191" d="M104 84v22q0 56 27 85.5t72 29.5q46 0 72 -29.5t26 -85.5v-22q0 -58 -25.5 -87.5t-72.5 -29.5q-46 0 -72.5 30t-26.5 87zM500 84v22q0 56 25.5 85.5t70.5 29.5q46 0 72 -29.5t26 -85.5v-22q0 -58 -25.5 -87.5t-72.5 -29.5q-45 0 -70.5 30t-25.5 87zM893 84v22 q0 56 25.5 85.5t70.5 29.5q46 0 72 -29.5t26 -85.5v-22q0 -58 -25.5 -87.5t-72.5 -29.5q-45 0 -70.5 30t-25.5 87z" />
<glyph unicode="&#x202f;" horiz-adv-x="375" />
<glyph unicode="&#x2039;" horiz-adv-x="675" d="M115 498l344 475l98 -64l-299 -411l297 -410l-96 -63z" />
<glyph unicode="&#x203a;" horiz-adv-x="675" d="M119 909l98 64l344 -475l-344 -473l-96 63l297 410z" />
<glyph unicode="&#x205f;" horiz-adv-x="469" />
<glyph unicode="&#x20ac;" d="M16 436l21 125h117q-2 49 -2 137v33h-136l21 121h119q23 290 155 425.5t369 135.5q179 0 332 -90l-35 -133q-143 86 -297 86q-172 0 -264 -97.5t-113 -326.5h387l-20 -121h-373v-29q0 -92 4 -141h369l-21 -125h-338q28 -187 113.5 -261.5t249.5 -74.5q78 0 158.5 21.5 t142.5 58.5l33 -125q-67 -40 -156.5 -64t-177.5 -24q-235 0 -357 112.5t-153 356.5h-148z" />
<glyph unicode="&#x2122;" horiz-adv-x="1280" d="M45 1358v98h453l-4 -98h-175v-551h-104v551h-170zM563 807q5 182 33 649h104q20 -44 90 -206.5t99 -225.5q22 53 89 215t91 217h107q23 -306 34 -649h-106q-10 357 -14 459q-98 -227 -164 -387h-80q-24 57 -82.5 191.5t-79.5 184.5q-7 -116 -16 -448h-105z" />
<glyph unicode="&#x25fc;" horiz-adv-x="993" d="M0 0v993h993v-993h-993z" />
</font>
</defs>
</svg>
