<?xml version="1.0" standalone="no"?>
<!DOCTYPE svg PUBLIC "-//W3C//DTD SVG 1.1//EN" "http://www.w3.org/Graphics/SVG/1.1/DTD/svg11.dtd" >
<svg xmlns="http://www.w3.org/2000/svg">
<metadata></metadata>
<defs>
<font id="postnllight_italic" horiz-adv-x="1026" >
<font-face units-per-em="2048" ascent="1536" descent="-512" />
<missing-glyph horiz-adv-x="348" />
<glyph unicode="&#xfb01;" horiz-adv-x="978" d="M-25 -389q40 148 72 326l172 950h-151l20 106h150l14 84q21 106 50 168t81 105q101 84 328 84q117 0 219 -27l-29 -100q-106 24 -209 24q-157 0 -221 -49q-38 -30 -59 -78t-39 -137l-15 -74h525l-191 -993h-119l168 887h-399l-172 -946q-37 -194 -80 -330h-115z" />
<glyph unicode="&#xfb02;" horiz-adv-x="980" d="M-25 -389q40 148 72 326l172 950h-151l20 106h150l14 84q22 110 46.5 169t74.5 102q96 86 303 86q148 0 285 -39l-269 -1395h-119l252 1315q-69 16 -172 16q-123 0 -184 -47q-70 -53 -96 -217l-13 -74h209l-20 -106h-207l-172 -946q-27 -163 -80 -330h-115z" />
<glyph unicode="&#xfb03;" horiz-adv-x="1507" d="M-25 -389q40 148 72 326l172 950h-151l20 106h150l14 84q36 201 137 285q87 72 252 72q31 0 92 -9l-33 -100q-30 6 -69 6q-107 0 -158 -43q-38 -33 -62 -82.5t-38 -138.5l-13 -74h406l14 84q19 105 48.5 167.5t82.5 105.5q101 84 328 84q117 0 219 -27l-28 -100 q-106 24 -209 24q-158 0 -222 -49q-38 -30 -59 -78t-39 -137l-12 -74h522l-190 -993h-119l168 887h-400l-172 -946q-37 -194 -80 -330h-114q37 137 71 326l173 950h-406l-172 -946q-37 -194 -80 -330h-115z" />
<glyph unicode="&#xfb04;" horiz-adv-x="1509" d="M-25 -389q40 148 72 326l172 950h-151l20 106h150l14 84q36 201 137 285q87 72 252 72q31 0 92 -9l-33 -100q-30 6 -69 6q-107 0 -158 -43q-38 -33 -62 -82.5t-38 -138.5l-13 -74h406l14 84q22 110 46.5 169t74.5 102q96 86 303 86q148 0 285 -39l-268 -1395h-119 l252 1315q-69 16 -172 16q-124 0 -185 -47q-70 -53 -96 -217l-12 -74h209l-21 -106h-207l-172 -946q-37 -194 -80 -330h-114q37 137 71 326l173 950h-406l-172 -946q-37 -194 -80 -330h-115z" />
<glyph horiz-adv-x="0" />
<glyph horiz-adv-x="682" />
<glyph unicode=" "  horiz-adv-x="348" />
<glyph unicode="&#x09;" horiz-adv-x="348" />
<glyph unicode="&#xa0;" horiz-adv-x="348" />
<glyph unicode="!" horiz-adv-x="503" d="M43 31q0 12 8 59q19 98 99 98q61 0 61 -59q0 -17 -8 -61q-9 -53 -32 -77t-67 -24q-61 0 -61 64zM154 420l63 446l100 514h125l-100 -514l-106 -446h-82z" />
<glyph unicode="&#x22;" horiz-adv-x="579" d="M121 1004l86 438h149l-118 -438h-117zM408 1004l84 438h151l-119 -438h-116z" />
<glyph unicode="#" d="M-12 393l22 109h172l137 375h-237l22 108h256l146 395h110l-147 -395h301l148 395h110l-147 -395h153l-20 -108h-174l-138 -375h240l-22 -109h-258l-144 -393h-108l143 393h-303l-144 -393h-108l143 393h-153zM293 502h301l137 375h-301z" />
<glyph unicode="$" d="M16 37l43 129q140 -70 306 -70h26l105 533l-19 6q-137 50 -202.5 130t-65.5 206q0 179 117.5 297.5t318.5 140.5l43 211h98l-38 -207q129 -6 262 -55l-45 -121q-121 48 -244 51l-105 -543l19 -6q129 -47 192.5 -122.5t63.5 -190.5q0 -183 -110 -302.5t-314 -148.5 l-39 -206h-100l39 198h-15q-87 0 -177.5 19.5t-158.5 50.5zM360 987q0 -78 36.5 -125t125.5 -84l101 504q-77 -12 -134 -47q-61 -37 -95 -102t-34 -146zM494 106q121 27 185 103.5t64 187.5q0 72 -34.5 117t-120.5 80z" />
<glyph unicode="%" horiz-adv-x="1640" d="M158 860q0 96 29 228t87 215q78 110 213 110q96 0 147.5 -63.5t51.5 -190.5q0 -95 -29.5 -227t-87.5 -215q-74 -109 -215 -109q-93 0 -144.5 63t-51.5 189zM281 868q0 -75 19.5 -114t70.5 -39q56 0 96 59q44 69 70 180.5t26 198.5q0 74 -19 113t-67 39q-62 0 -100 -60 q-46 -66 -71 -177.5t-25 -199.5zM291 39l950 1399l111 -52l-955 -1396zM913 219q0 95 29.5 227.5t87.5 215.5q78 110 213 110q96 0 147.5 -63.5t51.5 -190.5q0 -95 -29.5 -227t-87.5 -215q-74 -109 -215 -109q-93 0 -145 63t-52 189zM1036 227q0 -75 19.5 -114t70.5 -39 q57 0 97 59q44 69 70 180.5t26 198.5q0 74 -19 113t-67 39q-62 0 -100 -60q-46 -66 -71.5 -177.5t-25.5 -199.5z" />
<glyph unicode="&#x26;" horiz-adv-x="1220" d="M51 225q1 68 28.5 132t76 116.5t103.5 94t122 77.5q-107 167 -107 338q0 113 45.5 210t135.5 158.5t207 61.5q113 0 182 -72.5t69 -193.5q0 -78 -29 -153.5t-81.5 -141t-115.5 -121t-140 -106.5q137 -199 233 -308q128 184 170 422h117q-63 -296 -215 -499 q94 -106 229 -148l-22 -119q-170 31 -299 172q-197 -178 -420 -178q-132 0 -211 67t-78 191zM188 244q0 -78 48 -118t133 -40q171 0 321 135q-134 156 -258 340q-47 -29 -84 -58t-76.5 -69t-61.5 -89t-22 -101zM408 995q0 -77 22.5 -144t67.5 -142q120 82 201 191.5 t81 234.5q0 72 -36 114.5t-99 42.5q-104 0 -170.5 -88.5t-66.5 -208.5z" />
<glyph unicode="'" horiz-adv-x="292" d="M113 1004l86 438h151l-121 -438h-116z" />
<glyph unicode="(" horiz-adv-x="569" d="M39 385q0 295 157 603t431 536l49 -47q-260 -257 -382 -539t-122 -549q0 -168 42 -343.5t122 -315.5l-68 -45q-106 157 -167.5 343.5t-61.5 356.5z" />
<glyph unicode=")" horiz-adv-x="569" d="M-131 -268q260 257 382 538.5t122 548.5q0 167 -42 344t-122 316l67 45q106 -157 168 -344t62 -357q0 -296 -157 -603t-431 -535z" />
<glyph unicode="*" horiz-adv-x="729" d="M123 1155l65 113l201 -113l25 248h121l-70 -248l248 115l22 -113l-258 -76l135 -188l-114 -72l-90 215l-179 -213l-86 72l211 186z" />
<glyph unicode="+" d="M96 508l23 121h325l64 327h127l-64 -327h326l-23 -121h-325l-64 -326h-127l64 326h-326z" />
<glyph unicode="," horiz-adv-x="409" d="M-86 -279q85 129 139 236q-55 16 -55 74q0 30 10 75q14 59 43 87t78 28q84 0 84 -82q0 -104 -102 -278q-50 -88 -115 -176z" />
<glyph unicode="-" horiz-adv-x="528" d="M41 455l25 120h358l-25 -120h-358z" />
<glyph unicode="." horiz-adv-x="409" d="M35 43q0 35 10 80q12 52 39.5 75t75.5 23q73 0 73 -76q0 -25 -12 -79q-10 -52 -37.5 -75.5t-77.5 -23.5q-71 0 -71 76z" />
<glyph unicode="/" horiz-adv-x="774" d="M-66 -33l783 1446h135l-784 -1446h-134z" />
<glyph unicode="0" d="M70 408q0 82 10 178.5t32.5 211t67 228.5t105.5 197q136 190 360 190q152 0 231.5 -103t79.5 -337q0 -82 -10.5 -179t-33 -211t-67 -227.5t-104.5 -195.5q-139 -193 -362 -193q-151 0 -230 103.5t-79 337.5zM213 420q0 -77 7.5 -131t26.5 -100.5t56 -69.5t92 -23 q143 0 238 135q89 129 134.5 343.5t45.5 386.5q0 77 -7.5 132t-27 101t-56 69t-91.5 23q-144 0 -238 -135q-89 -129 -134.5 -344t-45.5 -387z" />
<glyph unicode="1" d="M104 0l21 115h307l215 1110l-348 -197l-27 117l414 235h127l-246 -1265h277l-19 -115h-721z" />
<glyph unicode="2" d="M41 0l10 102l277 248q90 81 157.5 147t138 147.5t115.5 153t74 152.5t29 156q0 97 -56.5 140.5t-175.5 43.5q-60 0 -141.5 -17t-149.5 -48v127q162 61 324 61q159 0 250.5 -74t91.5 -209q0 -93 -29 -185t-74 -169t-116 -160.5t-137.5 -148t-155.5 -141.5l-244 -211h555 l-18 -115h-725z" />
<glyph unicode="3" d="M63 35l41 117q127 -62 279 -62q172 0 267 87t95 255q0 128 -75 185t-246 57h-21l23 106h16q73 0 140.5 22t121 62t85.5 104t32 142q0 95 -49.5 138.5t-159.5 43.5q-132 0 -276 -59l12 121q142 59 291 59q155 0 241.5 -71.5t86.5 -211.5q0 -145 -78 -244.5t-209 -146.5v-4 q97 -26 154 -97.5t57 -188.5q0 -236 -141 -359t-379 -123q-151 0 -308 68z" />
<glyph unicode="4" d="M33 375l16 98q403 502 795 907h125l-172 -888h188l-22 -117h-191l-70 -375h-133l68 375h-604zM195 492h467l133 692q-116 -122 -288.5 -320.5t-311.5 -371.5z" />
<glyph unicode="5" d="M47 33l43 119q127 -62 283 -62q175 0 274 105q109 115 109 309q0 101 -55 151t-173 50q-113 0 -241 -48l-58 50l152 673h606l-20 -112h-488l-108 -484q95 39 209 39q151 0 234 -73.5t83 -214.5q0 -94 -19.5 -177t-62.5 -155.5t-105.5 -124.5t-153 -81.5t-200.5 -29.5 q-150 0 -309 66z" />
<glyph unicode="6" d="M84 346q0 226 86 474.5t236 400.5q90 90 204 141t236 51q74 0 123 -12l-35 -111q-50 8 -88 8q-175 0 -311 -122q-155 -140 -236 -412q143 94 319 94q148 0 231 -82.5t83 -226.5q0 -106 -36 -209t-99.5 -186.5t-161 -135t-211.5 -51.5q-93 0 -160.5 29t-106 82.5 t-56 119.5t-17.5 148zM227 334q10 -246 217 -246q78 0 144 39t108.5 102t66.5 140.5t25 156.5q0 104 -54.5 159.5t-162.5 55.5q-139 0 -299 -90q-51 -152 -45 -317z" />
<glyph unicode="7" d="M90 0l803 1262h-645l24 118h783l-23 -123l-794 -1257h-148z" />
<glyph unicode="8" d="M39 272q0 160 105 280.5t272 188.5q-189 121 -187 285q1 113 62 202t162 137t223 48q143 0 226.5 -65t82.5 -187q0 -259 -338 -426q55 -33 92.5 -60t76 -66t58 -86.5t19.5 -102.5q-2 -194 -145 -323.5t-355 -129.5q-161 0 -257.5 79.5t-96.5 225.5zM176 297 q0 -98 66.5 -152.5t171.5 -54.5q86 0 163 38.5t125.5 111t49.5 161.5q1 77 -56.5 140.5t-193.5 142.5q-62 -26 -115.5 -60t-103 -81.5t-78 -111t-29.5 -134.5zM371 1038q0 -79 48.5 -135t143.5 -115q281 142 281 353q1 77 -49.5 116t-137.5 39q-122 0 -203.5 -71t-82.5 -187 z" />
<glyph unicode="9" d="M37 -16l41 116q43 -16 104 -16q169 0 310 123q85 73 139.5 175t95.5 234q-65 -43 -150 -68.5t-167 -25.5q-148 0 -229 82.5t-81 226.5q0 113 36.5 218.5t100.5 186t160 129t207 48.5q89 0 156 -29.5t106 -82t57.5 -119.5t18.5 -148q0 -143 -33.5 -300t-104 -309.5 t-165.5 -250.5q-197 -207 -467 -207q-79 0 -135 17zM242 856q0 -217 213 -217q139 0 299 90q45 176 45 318q0 245 -217 245q-102 0 -181 -65.5t-118.5 -163.5t-40.5 -207z" />
<glyph unicode=":" horiz-adv-x="409" d="M0 43q0 35 10 80q12 52 39.5 75t75.5 23q74 0 74 -76q0 -21 -13 -79q-10 -52 -37 -75.5t-77 -23.5q-72 0 -72 76zM156 864q0 35 10 80q12 52 39.5 75t75.5 23q73 0 73 -75q0 -26 -12 -80q-10 -52 -37.5 -75.5t-77.5 -23.5q-71 0 -71 76z" />
<glyph unicode=";" horiz-adv-x="409" d="M-96 -279q85 129 139 236q-55 16 -55 74q0 30 10 75q14 59 43 87t78 28q84 0 84 -82q0 -102 -103 -278q-54 -94 -114 -176zM156 864q0 35 10 80q12 52 39.5 75t75.5 23q73 0 73 -75q0 -26 -12 -80q-10 -52 -37.5 -75.5t-77.5 -23.5q-71 0 -71 76z" />
<glyph unicode="&#x3c;" d="M109 518l20 100l664 377l43 -102l-562 -334v-8l424 -324l-73 -86z" />
<glyph unicode="=" d="M41 303l25 123h778l-23 -123h-780zM121 715l24 121h779l-25 -121h-778z" />
<glyph unicode="&#x3e;" d="M109 242l559 333v11l-422 323l73 86l517 -377l-21 -100l-663 -377z" />
<glyph unicode="?" horiz-adv-x="800" d="M90 31q0 12 8 59q16 98 97 98q61 0 61 -59q0 -17 -8 -61q-8 -53 -30.5 -77t-65.5 -24q-62 0 -62 64zM174 1239l6 119q130 55 277 55q165 0 256.5 -76.5t91.5 -234.5q0 -138 -64.5 -239.5t-168.5 -152.5t-236 -57l-57 -239h-97l51 331q220 11 328.5 94.5t108.5 247.5 q0 112 -57.5 161.5t-184.5 49.5q-133 0 -254 -59z" />
<glyph unicode="@" horiz-adv-x="1515" d="M94 543q1 179 63 340t167 278.5t252.5 186.5t314.5 69q259 0 406 -143t147 -381q0 -109 -24 -208t-69 -179t-119 -128t-167 -48q-134 0 -170 102q-87 -102 -217 -102q-111 0 -167 72t-56 198q0 112 41 212.5t126.5 168.5t198.5 68q50 0 94 -19.5t72 -54.5l25 51h78 l-89 -438q-10 -52 -10 -86q0 -84 92 -84q77 0 135 67.5t85.5 165t27.5 205.5q0 116 -33.5 203t-95.5 140t-144 78.5t-184 25.5q-134 0 -255 -58.5t-208.5 -159t-139.5 -240.5t-52 -296q0 -236 125 -358.5t365 -122.5q170 0 350 47l-8 -101q-179 -51 -373 -51 q-274 0 -429.5 151t-154.5 429zM567 608q0 -92 31 -136t100 -44q108 0 191 109l69 354q-56 59 -141 59q-76 0 -134.5 -51.5t-87 -128.5t-28.5 -162z" />
<glyph unicode="A" horiz-adv-x="1146" d="M-82 0q354 722 725 1380h137q123 -687 187 -1380h-140l-30 307h-588q-91 -179 -150 -307h-141zM276 440h506q-34 342 -100 764h-4q-220 -395 -402 -764z" />
<glyph unicode="B" horiz-adv-x="1136" d="M55 0l267 1380h331q210 0 293 -65q86 -63 86 -203q0 -139 -64 -244t-190 -139v-4q226 -29 226 -250q0 -475 -617 -475h-332zM215 133h205q213 0 327.5 81.5t114.5 236.5q0 61 -16 95t-51 58q-71 45 -256 45h-226zM340 782h166q95 0 155.5 14t110.5 46q54 37 86.5 103 t32.5 153q0 84 -53 119q-28 17 -70.5 23.5t-126.5 6.5h-209z" />
<glyph unicode="C" horiz-adv-x="1093" d="M96 492q0 87 12.5 175.5t39.5 179.5t67 173.5t99.5 154.5t131.5 124.5t168 83t205 30.5q169 0 307 -82l-55 -123q-116 78 -270 78q-114 0 -210 -50.5t-159.5 -132t-108.5 -186t-65 -210.5t-20 -209q0 -202 82 -302t251 -100q149 0 328 78l10 -119q-176 -88 -362 -88 q-230 0 -340.5 136t-110.5 389z" />
<glyph unicode="D" horiz-adv-x="1265" d="M55 0l267 1380h292q142 0 223.5 -12.5t147.5 -42.5q189 -89 189 -393q0 -105 -17 -215.5t-52.5 -224.5t-101.5 -214.5t-153 -162.5t-203 -88.5t-278 -26.5h-314zM215 133h184q134 0 215.5 18.5t157.5 73.5q119 82 189.5 280.5t70.5 414.5q0 173 -69 245q-46 48 -121 65 t-215 17h-195z" />
<glyph unicode="E" horiz-adv-x="1056" d="M55 0l267 1380h735l-23 -133h-600l-92 -465h528l-26 -133h-529l-98 -516h602l-24 -133h-740z" />
<glyph unicode="F" horiz-adv-x="1021" d="M55 0l267 1380h735l-23 -133h-602l-92 -465h530l-26 -133h-531l-123 -649h-135z" />
<glyph unicode="G" horiz-adv-x="1208" d="M96 479q0 150 29 287t89 255t145.5 205.5t205.5 137t262 49.5q199 0 359 -90l-56 -123q-138 86 -319 86q-113 0 -209 -47t-162 -125.5t-112.5 -182t-68 -215.5t-21.5 -227q0 -393 333 -393q156 0 271 45l84 424h-279l27 133h413l-124 -647q-94 -38 -206 -61t-210 -23 q-226 0 -338.5 134t-112.5 378z" />
<glyph unicode="H" horiz-adv-x="1320" d="M55 0l267 1380h135l-117 -598h674l116 598h136l-267 -1380h-135l123 649h-674l-123 -649h-135z" />
<glyph unicode="I" horiz-adv-x="524" d="M61 0l267 1380h135l-266 -1380h-136z" />
<glyph unicode="J" horiz-adv-x="774" d="M-102 -10l26 108q66 -16 123 -16q166 0 249 94.5t124 310.5l174 893h135l-172 -886q-35 -173 -80 -271.5t-123 -161.5q-117 -94 -293 -94q-76 0 -163 23z" />
<glyph unicode="K" horiz-adv-x="1077" d="M55 0l267 1380h135l-129 -665q363 278 696 665h147q-297 -358 -589 -612l331 -768h-157l-293 670q-128 -104 -168 -133l-105 -537h-135z" />
<glyph unicode="L" horiz-adv-x="905" d="M55 0l267 1380h135l-242 -1247h526l-24 -133h-662z" />
<glyph unicode="M" horiz-adv-x="1634" d="M31 0q115 521 346 1380h125q176 -680 254 -1028h4q89 141 330.5 518t326.5 510h115q-87 -720 -186 -1380h-138q107 746 160 1110h-4q-352 -545 -614 -965h-78q-43 179 -128.5 523t-109.5 442h-4q-195 -778 -264 -1110h-135z" />
<glyph unicode="N" horiz-adv-x="1370" d="M55 0l267 1380h124l521 -1128h2l221 1128h125l-266 -1380h-107l-541 1143h-2l-219 -1143h-125z" />
<glyph unicode="O" horiz-adv-x="1310" d="M96 479q0 117 23.5 240t77.5 248.5t132 223.5t198 160t264 62q423 0 423 -512q0 -82 -12 -168.5t-38 -178.5t-64.5 -176.5t-96 -159.5t-127 -130.5t-161.5 -88t-197 -32.5q-216 0 -319 133.5t-103 378.5zM238 496q0 -203 70 -299.5t229 -96.5q107 0 197.5 51.5t151 134.5 t103.5 188t62.5 210t19.5 203q0 202 -69.5 297.5t-229.5 95.5q-107 0 -197.5 -51.5t-151 -134t-103.5 -187.5t-62.5 -209.5t-19.5 -201.5z" />
<glyph unicode="P" horiz-adv-x="1110" d="M55 0l267 1380h342q137 0 221.5 -23.5t130.5 -78.5q59 -71 59 -197v-12q-3 -136 -46.5 -258t-137.5 -195q-70 -54 -167.5 -77t-250.5 -23h-184l-99 -516h-135zM313 649h160q239 0 328 66q65 50 98 147t33 191q0 58 -11.5 90t-37.5 55q-35 27 -91 38t-157 11h-203z" />
<glyph unicode="Q" horiz-adv-x="1310" d="M96 479q0 117 23.5 240t77.5 248.5t132 223.5t198 160t264 62q216 0 319.5 -134.5t103.5 -373.5q0 -95 -17 -199t-57.5 -219.5t-100 -213t-153.5 -175t-208 -108.5l141 -242l-125 -76l-149 297q-12 -2 -27 -2q-216 0 -319 133.5t-103 378.5zM238 496q0 -208 70 -302 t231 -94q107 0 197.5 50.5t150.5 131.5t103 185.5t62 211t19 208.5q0 203 -69.5 298t-229.5 95q-107 0 -197.5 -51.5t-151 -134t-103.5 -187.5t-62.5 -209.5t-19.5 -201.5z" />
<glyph unicode="R" horiz-adv-x="1136" d="M55 0l267 1380h307q153 0 241 -23.5t140 -88.5q61 -75 61 -191q0 -77 -8.5 -141t-30.5 -126t-57 -108.5t-90.5 -83t-128.5 -55.5l139 -563h-143l-121 539q-74 -4 -164 -4h-170l-102 -535h-140zM322 668h170q108 0 160.5 5.5t103.5 24.5q174 68 174 346q0 101 -56 154 q-58 49 -239 49h-199z" />
<glyph unicode="S" horiz-adv-x="1001" d="M-6 37l43 129q60 -32 138.5 -51t150.5 -19q176 0 270 82t94 219q0 79 -38.5 126.5t-141.5 84.5l-74 27q-258 91 -258 350q0 186 129.5 307t362.5 121q145 0 274 -55l-45 -121q-114 51 -235 51q-135 0 -218 -53q-57 -37 -90.5 -99.5t-33.5 -131.5q0 -96 42.5 -148 t151.5 -92l74 -27q127 -45 185.5 -120.5t58.5 -200.5q0 -207 -136 -328t-383 -121q-178 0 -321 70z" />
<glyph unicode="T" horiz-adv-x="976" d="M141 1247l27 133h899l-27 -133h-387l-239 -1247h-135l239 1247h-377z" />
<glyph unicode="U" horiz-adv-x="1255" d="M109 322q0 79 20 188l172 870h135l-170 -868q-18 -99 -18 -172q0 -119 61.5 -179.5t202.5 -60.5q185 0 276 95q91 91 134 317l170 868h135l-174 -882q-28 -142 -68.5 -238t-106 -163.5t-159 -98.5t-225.5 -31q-192 0 -288.5 93t-96.5 262z" />
<glyph unicode="V" horiz-adv-x="1116" d="M170 1380h137q47 -553 144 -1202h4q375 700 612 1202h141q-286 -590 -716 -1380h-142q-112 629 -180 1380z" />
<glyph unicode="W" horiz-adv-x="1699" d="M154 1380h139q0 -277 26.5 -608t65.5 -594h4q144 300 359 785q73 163 167 417h134q0 -276 10 -417q25 -475 59 -785h4q133 257 283 587t262 615h141q-283 -697 -649 -1380h-143q-64 440 -88 1083h-4q-196 -474 -500 -1083h-141q-119 761 -129 1380z" />
<glyph unicode="X" horiz-adv-x="995" d="M-123 0l531 702q-111 292 -240 676h147q66 -226 193 -565q316 409 426 565h151q-281 -381 -524 -684l270 -694h-157l-213 584l-420 -584h-164z" />
<glyph unicode="Y" horiz-adv-x="950" d="M158 1380h143q57 -507 143 -790h5q107 160 239 391.5t213 398.5h141q-106 -206 -263.5 -470t-293.5 -457l-86 -453h-135l86 455q-130 379 -192 925z" />
<glyph unicode="Z" horiz-adv-x="1028" d="M-25 0l9 127l876 1120h-643l25 133h809l-25 -125l-887 -1122h680l-26 -133h-818z" />
<glyph unicode="[" horiz-adv-x="694" d="M61 -229l316 1628h330l-19 -103h-211l-276 -1423h211l-21 -102h-330z" />
<glyph unicode="\" horiz-adv-x="696" d="M139 1413h133l224 -1446h-138z" />
<glyph unicode="]" horiz-adv-x="694" d="M-59 -229l20 102h209l274 1423h-208l18 103h330l-316 -1628h-327z" />
<glyph unicode="^" d="M66 659l503 637h113l266 -647l-104 -35l-226 549h-6l-446 -555z" />
<glyph unicode="_" horiz-adv-x="976" d="M-160 -268l25 118h960l-24 -118h-961z" />
<glyph unicode="`" horiz-adv-x="657" d="M102 1343l66 121l418 -254l-47 -96z" />
<glyph unicode="a" horiz-adv-x="976" d="M8 215q0 109 66.5 199.5t181.5 140.5q143 61 393 61h62l10 56q8 41 8 82q0 85 -48.5 123t-166.5 38q-138 0 -287 -63v109q153 65 314 65q150 0 230.5 -61t80.5 -174q0 -68 -16 -144l-88 -463q-11 -49 -11 -63q0 -25 13.5 -35t48.5 -10h12l-16 -82q-38 -10 -76 -10 q-48 0 -78 27.5t-29 80.5q-67 -58 -155 -91.5t-174 -33.5q-133 0 -204 66t-71 182zM139 225q0 -66 43.5 -105.5t128.5 -39.5q86 0 171 38t151 97l59 301h-69q-150 0 -254 -29q-106 -32 -168 -98.5t-62 -163.5z" />
<glyph unicode="b" horiz-adv-x="1093" d="M43 68l258 1345h125l-94 -489q145 102 311 102q161 0 248 -98q81 -90 81 -249q0 -13 -1 -26q-5 -140 -41 -260.5t-102 -217.5t-171.5 -152.5t-240.5 -55.5q-206 0 -373 101zM182 135q93 -49 228 -49q104 0 184.5 41.5t132.5 116.5t80 175t33 222q1 13 1 25q1 121 -53 179 q-58 64 -176 64q-149 0 -303 -108z" />
<glyph unicode="c" horiz-adv-x="921" d="M59 358q0 100 23.5 196t71.5 181.5t115.5 150t162.5 102.5t205 38q139 0 258 -74l-41 -116q-107 71 -231 71q-101 0 -185.5 -46.5t-137.5 -122.5q-54 -74 -83 -168q-27 -87 -27 -178v-13q2 -134 58.5 -212.5t195.5 -84.5h19q125 0 252 61l-2 -112q-131 -64 -287 -64 q-187 0 -277 107t-90 284z" />
<glyph unicode="d" horiz-adv-x="1071" d="M59 369q0 123 38.5 239t109 210t182 151t246.5 57q125 0 231 -61l90 448h123l-196 -1018q-37 -180 -62 -395h-114l2 102q-59 -60 -141.5 -97.5t-180.5 -37.5q-154 0 -241 109.5t-87 292.5zM190 379q0 -138 58.5 -214.5t169.5 -76.5q86 0 167.5 46t143.5 124l115 582 q-103 67 -226 67q-101 0 -184 -47t-135 -123.5t-80.5 -169t-28.5 -188.5z" />
<glyph unicode="e" d="M59 344q0 189 63 343t186 246.5t284 92.5q158 0 238.5 -90.5t80.5 -243.5q0 -102 -18 -207l-8 -43h-688q-7 -58 -7 -92q0 -136 65.5 -202t215.5 -66q143 0 287 61l-2 -108q-145 -68 -314 -68q-197 0 -290 94t-93 283zM215 551h555q14 68 14 129q0 106 -50 166.5 t-156 60.5q-127 0 -207 -69q-118 -105 -156 -287z" />
<glyph unicode="f" horiz-adv-x="550" d="M-25 -389q40 148 72 326l172 950h-151l20 106h150l14 80q37 206 137 289q87 72 252 72q40 0 92 -9l-33 -100q-30 6 -77 6q-94 0 -150 -43q-73 -55 -100 -221l-13 -74h209l-20 -106h-207l-172 -946q-27 -163 -80 -330h-115z" />
<glyph unicode="g" horiz-adv-x="1064" d="M59 365q0 172 65.5 322t190.5 244.5t283 94.5q174 0 272 -113l31 80h90l-178 -921q-24 -122 -57 -207t-88 -153t-139.5 -101t-200.5 -33q-101 0 -207 37l29 104q88 -30 188 -30q150 0 231 84.5t119 261.5l19 100q-128 -143 -320 -143q-159 0 -243.5 97t-84.5 276z M190 377q0 -136 55.5 -201t168.5 -65q89 0 173 47t144 127l103 514q-96 108 -238 108q-121 0 -215 -74.5t-142.5 -194.5t-48.5 -261z" />
<glyph unicode="h" horiz-adv-x="1085" d="M31 0l270 1401h123l-105 -527q84 71 183 111.5t192 40.5q126 0 196.5 -63t70.5 -175q0 -71 -25 -196l-113 -592h-123l113 584q21 107 21 178q0 74 -39.5 107.5t-128.5 33.5q-93 0 -193 -44.5t-178 -119.5l-141 -739h-123z" />
<glyph unicode="i" horiz-adv-x="444" d="M35 0l190 993h123l-190 -993h-123zM270 1270q0 14 11 57q12 54 32 76t60 22q57 0 57 -55q0 -17 -10 -61q-14 -55 -32 -76t-56 -21q-30 0 -46 15.5t-16 42.5z" />
<glyph unicode="j" horiz-adv-x="407" d="M-276 -420l26 107h12q70 0 115.5 25.5t80.5 94t58 189.5l195 997h123l-193 -985q-43 -227 -132 -328.5t-251 -101.5q-22 0 -34 2zM256 1266q0 22 10 61q12 54 33 76t61 22q56 0 56 -51q0 -21 -10 -65q-14 -55 -31.5 -76t-57.5 -21q-30 0 -45.5 15t-15.5 39z" />
<glyph unicode="k" horiz-adv-x="909" d="M31 0l272 1413h123l-172 -881q117 77 255 200t263 261h148q-194 -224 -414 -403l239 -590h-141l-205 504q-76 -55 -174 -119l-71 -385h-123z" />
<glyph unicode="l" horiz-adv-x="446" d="M35 0l270 1413h125l-272 -1413h-123z" />
<glyph unicode="m" horiz-adv-x="1628" d="M31 0l190 993h101l-11 -125q168 158 346 158q94 0 151.5 -42t78.5 -116q189 158 358 158q121 0 188.5 -62.5t67.5 -187.5q0 -87 -24 -219l-109 -557h-123l113 584q18 102 18 178q0 73 -40 107t-128 34q-76 0 -157 -37t-152 -104q-3 -26 -20 -127l-121 -635h-123l117 623 q18 99 18 147q0 68 -33 100.5t-114 32.5q-170 0 -328 -164l-141 -739h-123z" />
<glyph unicode="n" horiz-adv-x="1085" d="M31 0l190 993h103l-13 -125q84 72 187 115t196 43q126 0 196.5 -63t70.5 -175q0 -71 -25 -196l-113 -592h-123l111 584q23 113 23 178q0 74 -39.5 107.5t-126.5 33.5q-95 0 -194.5 -44t-178.5 -120l-141 -739h-123z" />
<glyph unicode="o" horiz-adv-x="1085" d="M59 348q0 99 21 195t65.5 183.5t107.5 154t154 106t199 39.5q174 0 267.5 -101.5t93.5 -279.5q0 -100 -20 -195t-63.5 -183.5t-106 -154.5t-155 -105.5t-202.5 -39.5q-175 0 -268 101.5t-93 279.5zM190 362q0 -136 60 -210t184 -74q82 0 150.5 33.5t114 89t76.5 128 t45 148.5t14 154q0 284 -242 284q-80 0 -147.5 -33.5t-113.5 -89t-78.5 -128t-47.5 -149t-15 -153.5z" />
<glyph unicode="p" horiz-adv-x="1075" d="M-49 -389l272 1382h88l-4 -100q171 133 348 133q77 0 139.5 -31.5t102.5 -89.5q59 -89 59 -239q-1 -82 -14 -162t-40 -159.5t-71.5 -147t-102.5 -119.5t-138.5 -81.5t-175.5 -29.5q-143 0 -256 68l-84 -424h-123zM180 158q44 -34 106.5 -54t121.5 -20q84 0 154.5 33 t118 87.5t80.5 127.5t48 152q16 83 16 164q0 132 -53 194q-54 63 -166 63q-76 0 -157.5 -36t-145.5 -93z" />
<glyph unicode="q" horiz-adv-x="1079" d="M59 365q0 128 41 247t114 211t182.5 147.5t236.5 55.5q181 0 350 -127l-258 -1288h-123l94 479q-126 -123 -297 -123q-152 0 -246 104t-94 294zM190 379q0 -143 64 -218t174 -75q88 0 168.5 49t134.5 125l111 574q-89 73 -230 73q-119 0 -216 -71t-151.5 -192t-54.5 -265 z" />
<glyph unicode="r" horiz-adv-x="659" d="M31 0l190 993h103l-15 -133q59 68 141.5 112t161.5 44q28 0 52 -4l-31 -121h-23q-79 0 -161 -35.5t-150 -97.5l-145 -758h-123z" />
<glyph unicode="s" horiz-adv-x="819" d="M-8 29l31 104q118 -59 245 -59q135 0 201 55.5t66 151.5q0 59 -33 89t-125 60l-47 16q-115 38 -165 99t-50 160q0 102 52.5 176t137 109.5t189.5 35.5q140 0 245 -55l-32 -105q-100 49 -209 49q-51 0 -94.5 -10t-81 -31.5t-59 -61t-21.5 -93.5q0 -60 31.5 -94t127.5 -66 l45 -16q126 -43 171 -97t45 -153q0 -148 -106.5 -237t-289.5 -89q-143 0 -274 62z" />
<glyph unicode="t" horiz-adv-x="618" d="M76 887l22 106h146l55 279l127 18l-57 -297h237l-20 -106h-240l-104 -531q-25 -154 -25 -178q0 -38 14 -63q15 -24 41.5 -33.5t77.5 -9.5q59 0 103 14l-11 -102q-57 -17 -108 -17q-132 0 -191 56q-49 44 -49 136v11q0 34 15 133l114 584h-147z" />
<glyph unicode="u" horiz-adv-x="1036" d="M68 236q0 71 34 241l101 516h123l-101 -514q-35 -169 -35 -227q0 -76 35 -117q28 -31 73 -44t116 -13q59 0 101.5 7t76 28t55 47.5t41 76t32.5 103t30 139.5l100 514h123l-101 -516q-37 -186 -67.5 -274t-87.5 -142q-52 -48 -129 -71t-197 -23q-165 0 -245 70 q-78 68 -78 193v6z" />
<glyph unicode="v" horiz-adv-x="862" d="M92 993h123q9 -155 40 -425.5t58 -430.5q107 194 240.5 452t198.5 404h127q-91 -203 -252 -504.5t-273 -488.5h-133q-38 171 -77 461.5t-52 531.5z" />
<glyph unicode="w" horiz-adv-x="1341" d="M94 993h123q8 -209 72 -821q181 356 381 821h108q9 -243 62 -821q283 561 393 821h127q-174 -394 -502 -993h-104q-49 411 -70 782q-154 -354 -369 -782h-104q-37 204 -72 493.5t-45 499.5z" />
<glyph unicode="x" horiz-adv-x="854" d="M-82 0l412 502q-147 355 -195 491h137q46 -141 142 -397q232 284 311 397h137q-142 -191 -397 -497l227 -496h-143l-172 401l-309 -401h-150z" />
<glyph unicode="y" horiz-adv-x="1003" d="M70 250q0 65 16 143l117 600h123l-115 -587q-16 -82 -16 -130q0 -83 41.5 -120t134.5 -37q81 0 162 41.5t145 113.5l141 719h123l-180 -921q-19 -97 -43.5 -169t-63.5 -136t-90.5 -104t-125.5 -62.5t-169 -22.5q-91 0 -200 37l28 104q88 -30 189 -30q149 0 228.5 82.5 t117.5 263.5l18 98q-127 -133 -315 -133q-125 0 -195.5 67.5t-70.5 182.5z" />
<glyph unicode="z" horiz-adv-x="811" d="M-20 102l643 785h-476l23 106h612l-20 -110l-639 -777h508l-19 -106h-628z" />
<glyph unicode="{" horiz-adv-x="675" d="M156 598l14 68q144 45 174 202l72 363q26 139 91.5 201.5t184.5 62.5h96l-18 -94h-53q-90 0 -125 -36t-60 -155l-55 -282q-29 -149 -71.5 -209.5t-133.5 -87.5v-2q105 -31 105 -158q0 -46 -17 -143l-53 -275q-9 -63 -12 -98q0 -56 25.5 -74t97.5 -18h53l-18 -94h-97 q-184 0 -184 172q0 34 10 92l70 362q30 155 -96 203z" />
<glyph unicode="|" horiz-adv-x="507" d="M47 -33l277 1413h118l-274 -1413h-121z" />
<glyph unicode="}" horiz-adv-x="675" d="M-143 -231l18 94h53q90 0 126 36t59 154l57 283q27 149 69.5 209.5t133.5 85.5v4q-105 31 -105 158q0 53 19 143l51 274q14 72 14 99q0 56 -26 74t-97 18h-55l19 94h98q94 0 138 -43t44 -129q0 -34 -10 -92l-70 -363q-30 -158 99 -202l-15 -68q-147 -47 -174 -203 l-72 -362q-28 -139 -93 -201.5t-183 -62.5h-98z" />
<glyph unicode="~" d="M14 498q141 190 293 190q32 0 66 -11.5t54.5 -22.5t61.5 -36l66 -40q91 -54 152 -54q53 0 94 28t96 99l80 -55q-133 -186 -289 -186q-94 0 -190 61l-70 43q-83 57 -139 57q-52 0 -100 -38t-103 -103z" />
<glyph unicode="&#xa1;" horiz-adv-x="503" d="M-14 -387l100 514l107 446h81l-63 -446l-100 -514h-125zM217 864q0 18 8 62q9 53 32 76.5t67 23.5q61 0 61 -63q0 -13 -8 -60q-19 -98 -98 -98q-62 0 -62 59z" />
<glyph unicode="&#xa2;" d="M104 559q0 90 20 178t62 168.5t101 144t142.5 106.5t180.5 54l39 203h101l-41 -199q124 -5 229 -71l-39 -117q-94 66 -211 72l-162 -826q119 6 234 62l-2 -113q-110 -52 -254 -61l-37 -193h-98l37 197q-156 18 -229 124t-73 271zM236 569q2 -117 44.5 -192.5t147.5 -97.5 l158 813q-109 -23 -191 -105t-121 -191t-38 -227z" />
<glyph unicode="&#xa3;" d="M0 0l20 129q79 49 137.5 133t78.5 184l47 246h-164l22 113h164l31 164q45 237 162 340.5t317 103.5q102 0 217 -37l-49 -123q-89 29 -178 29q-156 0 -230 -74t-112 -266l-27 -137h322l-23 -113h-321l-41 -205q-25 -134 -81.5 -228t-131.5 -142v-4h676l-19 -113h-817z" />
<glyph unicode="&#xa4;" d="M-29 209l174 149q-28 57 -28 146q0 177 121 311l-136 158l111 88l133 -158q107 66 232 66t206 -68l174 148l86 -111l-178 -154q23 -61 23 -129q0 -154 -103 -288l150 -172q-7 -6 -18.5 -15t-36.5 -28t-41 -32t-15 -14l-141 164q-118 -80 -256 -80q-113 0 -195 56 l-176 -148zM250 524q0 -91 56 -144.5t147 -53.5q119 0 211 89.5t92 219.5q0 92 -56 145.5t-147 53.5q-119 0 -211 -90t-92 -220z" />
<glyph unicode="&#xa5;" d="M70 201l26 123h256l25 133h-254l24 121h191q-108 406 -154 802h144q47 -440 137 -802h4q116 175 248.5 406.5t212.5 395.5h141q-89 -173 -219 -394.5t-254 -407.5h190l-22 -121h-254l-25 -133h250l-26 -123h-246l-37 -201h-135l37 201h-260z" />
<glyph unicode="&#xa6;" horiz-adv-x="452" d="M41 -33l102 533h103l-103 -533h-102zM219 897l103 537h102l-102 -537h-103z" />
<glyph unicode="&#xa7;" horiz-adv-x="815" d="M-14 23l26 106q129 -55 256 -55q113 0 180.5 48t67.5 142q0 55 -33.5 89t-128.5 79l-86 43q-83 40 -124.5 92t-41.5 127q0 74 47 139t132 113q-88 73 -88 187q0 74 34.5 134t98.5 97q84 49 221 49q114 0 223 -39l-22 -98q-100 35 -209 35q-107 0 -165.5 -44t-58.5 -120 q0 -47 29 -82.5t102 -69.5l123 -57q94 -43 133 -90.5t39 -118.5q0 -79 -46 -142t-140 -122q84 -60 84 -186q0 -147 -103.5 -229.5t-275.5 -82.5q-128 0 -274 56zM227 719q0 -44 22.5 -73t84.5 -62l143 -74q141 90 141 184q0 46 -32.5 80t-108.5 68l-121 55 q-54 -30 -91.5 -76.5t-37.5 -101.5z" />
<glyph unicode="&#xa8;" horiz-adv-x="657" d="M82 1272q0 11 6 41q10 50 41.5 77t67.5 27q82 0 82 -69q0 -10 -7 -45q-10 -51 -40.5 -76t-75.5 -25q-74 0 -74 70zM389 1272q0 11 6 41q10 50 42 77t71 27q80 0 80 -69q0 -15 -6 -45q-9 -50 -40 -75.5t-75 -25.5q-78 0 -78 70z" />
<glyph unicode="&#xa9;" horiz-adv-x="1437" d="M61 543q0 160 62.5 310t167.5 260.5t250 177.5t301 67q243 0 382.5 -148t139.5 -393q-1 -156 -62 -304.5t-164 -261.5t-249 -182t-307 -69q-243 0 -382 149t-139 394zM172 553q0 -211 113 -324.5t317 -113.5q128 -2 248 55.5t206.5 152.5t139 222t53.5 258 q1 211 -111.5 325.5t-316.5 114.5q-171 0 -321.5 -97t-239 -256.5t-88.5 -336.5zM414 580q0 63 14 127.5t45 126.5t74.5 110t109 77.5t142.5 29.5q104 0 174 -52l-37 -98q-61 47 -150 47q-53 0 -97 -23t-73 -60.5t-49 -86t-28.5 -97.5t-8.5 -97q-3 -181 144 -181 q92 0 172 39l-2 -96q-95 -45 -187 -45q-243 0 -243 279z" />
<glyph unicode="&#xaa;" horiz-adv-x="684" d="M111 784q0 95 60 157.5t161 90.5q82 25 194 25h47l5 24q2 14 2 41q0 49 -28.5 67.5t-100.5 18.5q-107 0 -209 -45l6 105q117 43 235 43q217 0 217 -158q0 -33 -10 -78l-57 -305q-6 -34 0.5 -47.5t30.5 -13.5h14l-16 -82q-27 -9 -64 -9q-78 0 -84 72h-2q-41 -37 -96 -59.5 t-109 -22.5q-94 0 -145 48t-51 128zM231 795q0 -44 25.5 -67t73.5 -23q103 0 188 79l35 177h-59q-64 0 -129 -19q-59 -16 -96.5 -54t-37.5 -93z" />
<glyph unicode="&#xab;" horiz-adv-x="915" d="M-18 496l430 477l73 -64l-368 -422l202 -405l-90 -41zM412 496l426 477l73 -64l-368 -422l202 -405l-90 -41z" />
<glyph unicode="&#xac;" d="M70 508l24 121h778l-90 -465h-125l68 344h-655z" />
<glyph unicode="&#xad;" horiz-adv-x="528" d="M41 455l25 120h358l-25 -120h-358z" />
<glyph unicode="&#xae;" horiz-adv-x="1437" d="M61 543q0 160 62.5 310t167.5 260.5t250 177.5t301 67q243 0 382.5 -148t139.5 -393q-1 -156 -62 -304.5t-164 -261.5t-249 -182t-307 -69q-243 0 -382 149t-139 394zM172 553q0 -211 113 -324.5t317 -113.5q128 -2 248 55.5t206.5 152.5t139 222t53.5 258 q1 211 -111.5 325.5t-316.5 114.5q-171 0 -321.5 -97t-239 -256.5t-88.5 -336.5zM426 301l147 750h187q108 0 160.5 -39t52.5 -129q0 -105 -42.5 -182.5t-119.5 -106.5l82 -293h-113l-67 272q-20 -2 -66 -2h-55l-49 -270h-117zM616 680h80q76 0 117 47.5t41 128.5 q0 51 -25 70.5t-86 19.5h-77z" />
<glyph unicode="&#xaf;" horiz-adv-x="657" d="M80 1255l24 117h490l-25 -117h-489z" />
<glyph unicode="&#xb0;" horiz-adv-x="552" d="M102 1167q0 114 79 202.5t204 88.5q96 0 143 -50t47 -132q0 -118 -78.5 -203.5t-203.5 -85.5q-91 0 -141 45t-50 135zM217 1174q0 -42 25 -64.5t71 -22.5q66 0 107 54t41 127q0 90 -96 90q-67 0 -107.5 -55t-40.5 -129z" />
<glyph unicode="&#xb1;" d="M-25 0l23 115h776l-22 -115h-777zM94 623l25 120h325l64 324h127l-64 -324h324l-23 -120h-323l-64 -326h-127l62 326h-326z" />
<glyph unicode="&#xb2;" horiz-adv-x="667" d="M141 827l15 101l90 67q168 128 209 164q109 98 128 186q5 23 5 48q0 102 -123 102q-92 0 -176 -41l-4 111q99 47 211 47q103 0 159 -52t56 -147q0 -107 -67.5 -201.5t-215.5 -197.5l-106 -76h292l-18 -111h-455z" />
<glyph unicode="&#xb3;" horiz-adv-x="667" d="M147 846l31 112q84 -38 172 -38t134 39t46 112q0 63 -33 86t-122 23h-53l18 100h55q83 0 131 37q49 39 49 102q0 41 -26 59.5t-84 18.5q-95 0 -186 -31l2 107q106 39 208 39q205 0 205 -172q0 -71 -38 -127.5t-105 -79.5v-4q50 -11 78 -54.5t28 -91.5q0 -132 -79 -204 t-226 -72q-116 0 -205 39z" />
<glyph unicode="&#xb4;" horiz-adv-x="657" d="M94 1210l420 254l64 -121l-439 -229z" />
<glyph unicode="&#xb6;" horiz-adv-x="1034" d="M117 1040q1 167 120.5 264t319.5 97h436l-315 -1618h-119l295 1520h-225l-297 -1520h-119l190 981q-137 0 -211.5 80.5t-74.5 195.5z" />
<glyph unicode="&#xb7;" horiz-adv-x="409" d="M86 469q0 35 10 80q12 52 39.5 75t75.5 23q74 0 74 -76q0 -21 -13 -79q-10 -52 -37 -75.5t-77 -23.5q-72 0 -72 76z" />
<glyph unicode="&#xb8;" horiz-adv-x="657" d="M96 -449l39 97q65 -21 123 -21q59 0 91 24t32 68q0 37 -28 54.5t-93 17.5q-27 0 -45 -2l-8 12l104 236h111l-66 -156q74 -5 113 -41t39 -102q0 -100 -68 -157.5t-182 -57.5q-87 0 -162 28z" />
<glyph unicode="&#xb9;" horiz-adv-x="667" d="M166 827l22 111h170l103 512l-193 -98l-12 102l244 137h104l-129 -653h160l-19 -111h-450z" />
<glyph unicode="&#xba;" horiz-adv-x="743" d="M135 860q0 84 22.5 162.5t67 144t119 105t168.5 39.5q118 0 185 -66.5t67 -185.5q0 -84 -23 -162.5t-67.5 -144t-118.5 -105t-168 -39.5q-120 0 -186 66t-66 186zM250 870q0 -168 151 -168q80 0 138 53t84 130t26 164q0 168 -149 168q-80 0 -138.5 -53t-85 -130 t-26.5 -164z" />
<glyph unicode="&#xbb;" horiz-adv-x="915" d="M-76 104l369 422l-203 406l90 41l244 -455l-426 -477zM350 104l369 422l-203 406l90 41l248 -455l-430 -477z" />
<glyph unicode="&#xbc;" horiz-adv-x="1640" d="M139 629l23 110h170l102 512l-192 -98l-13 102l244 138h105l-129 -654h159l-18 -110h-451zM307 39l950 1399l111 -52l-954 -1396zM817 180l17 94q188 224 452 478h103l-93 -461h117l-20 -111h-115l-37 -192h-117l35 192h-342zM965 291h215l59 291q-65 -63 -274 -291z" />
<glyph unicode="&#xbd;" horiz-adv-x="1640" d="M139 629l23 110h170l102 512l-192 -98l-13 102l244 138h105l-129 -654h159l-18 -110h-451zM307 39l950 1399l111 -52l-954 -1396zM920 -12l14 100l90 68q16 12 46 35q58 44 85.5 65.5t69.5 57t61.5 58.5t41.5 54.5t30 62t8 64.5q0 102 -123 102q-92 0 -176 -41l-4 111 q99 47 211 47q103 0 159 -52t56 -147q0 -107 -67.5 -201.5t-215.5 -197.5l-106 -76h293l-19 -110h-454z" />
<glyph unicode="&#xbe;" horiz-adv-x="1640" d="M145 647l31 113q86 -39 172 -39q88 0 134 39t46 112q0 63 -33 86t-122 23h-54l19 100h55q83 0 131 37q49 39 49 103q0 41 -25.5 59t-84.5 18q-99 0 -187 -30l3 106q106 39 208 39q205 0 205 -172q0 -71 -38 -127.5t-105 -79.5v-4q50 -11 78 -54t28 -91q0 -133 -79 -205 t-226 -72q-116 0 -205 39zM307 39l950 1399l111 -52l-954 -1396zM817 180l17 94q188 224 452 478h103l-93 -461h117l-20 -111h-115l-37 -192h-117l35 192h-342zM965 291h215l59 291q-65 -63 -274 -291z" />
<glyph unicode="&#xbf;" horiz-adv-x="843" d="M12 -109q0 138 64.5 239.5t168.5 152.5t236 57l58 240h96l-51 -332q-220 -11 -328.5 -94.5t-108.5 -247.5q0 -112 57.5 -161.5t184.5 -49.5q133 0 254 59l-6 -119q-130 -55 -277 -55q-165 0 -256.5 76.5t-91.5 234.5zM561 864q0 18 8 62q7 52 30.5 76t66.5 24 q33 0 47 -15.5t14 -47.5q0 -13 -8 -60q-16 -98 -96 -98q-62 0 -62 59z" />
<glyph unicode="&#xc0;" horiz-adv-x="1146" d="M-82 0q354 722 725 1380h137q123 -687 187 -1380h-140l-30 307h-588q-91 -179 -150 -307h-141zM276 440h506q-34 342 -100 764h-4q-220 -395 -402 -764zM395 1700l66 121l418 -254l-48 -94z" />
<glyph unicode="&#xc1;" horiz-adv-x="1146" d="M-82 0q354 722 725 1380h137q123 -687 187 -1380h-140l-30 307h-588q-91 -179 -150 -307h-141zM276 440h506q-34 342 -100 764h-4q-220 -395 -402 -764zM567 1567l422 254l64 -121l-439 -227z" />
<glyph unicode="&#xc2;" horiz-adv-x="1146" d="M-82 0q354 722 725 1380h137q123 -687 187 -1380h-140l-30 307h-588q-91 -179 -150 -307h-141zM276 440h506q-34 342 -100 764h-4q-220 -395 -402 -764zM457 1597l284 246h86l203 -266l-100 -68l-154 187h-12l-234 -180z" />
<glyph unicode="&#xc3;" horiz-adv-x="1146" d="M-82 0q354 722 725 1380h137q123 -687 187 -1380h-140l-30 307h-588q-91 -179 -150 -307h-141zM276 440h506q-34 342 -100 764h-4q-220 -395 -402 -764zM463 1638q95 168 209 168q33 0 58 -10.5t69 -42.5l28 -20q49 -37 84 -37q27 0 51.5 22t55.5 70l69 -62 q-39 -78 -81 -114.5t-97 -36.5q-64 0 -133 51l-28 21q-50 39 -91 39q-29 0 -57.5 -27t-62.5 -82z" />
<glyph unicode="&#xc4;" horiz-adv-x="1146" d="M-82 0q354 722 725 1380h137q123 -687 187 -1380h-140l-30 307h-588q-91 -179 -150 -307h-141zM276 440h506q-34 342 -100 764h-4q-220 -395 -402 -764zM520 1628q0 3 4 43q10 49 42 76t69 27q82 0 82 -70q0 -13 -6 -43q-10 -51 -41.5 -76.5t-77.5 -25.5q-72 0 -72 69z M827 1628q0 8 7 43q10 50 41.5 76.5t70.5 26.5q80 0 80 -70q0 -13 -6 -43q-10 -51 -41 -76.5t-74 -25.5q-78 0 -78 69z" />
<glyph unicode="&#xc5;" horiz-adv-x="1146" d="M-82 0q354 722 725 1380h137q123 -687 187 -1380h-140l-30 307h-588q-91 -179 -150 -307h-141zM276 440h506q-34 342 -100 764h-4q-220 -395 -402 -764zM602 1667q2 85 62.5 147t146.5 62q64 0 102.5 -41.5t36.5 -103.5q0 -86 -60 -147.5t-149 -61.5q-64 0 -102.5 41.5 t-36.5 103.5zM696 1681q0 -30 16.5 -48.5t47.5 -18.5q39 0 67.5 28.5t28.5 73.5q0 31 -16 49.5t-47 18.5q-39 0 -68 -29t-29 -74z" />
<glyph unicode="&#xc6;" horiz-adv-x="1667" d="M-88 0q174 284 468 716.5t468 663.5h819l-22 -133h-601l-92 -465h529l-27 -133h-528l-99 -516h603l-25 -133h-739l59 307h-465q-77 -113 -192 -307h-156zM346 440h406l153 807h-18q-97 -134 -275 -400.5t-266 -406.5z" />
<glyph unicode="&#xc7;" horiz-adv-x="1093" d="M96 492q0 87 12.5 175.5t39.5 179.5t67 173.5t99.5 154.5t131.5 124.5t168 83t205 30.5q169 0 307 -82l-55 -123q-116 78 -270 78q-114 0 -210 -50.5t-159.5 -132t-108.5 -186t-65 -210.5t-20 -209q0 -202 82 -302t251 -100q149 0 328 78l10 -119q-155 -77 -321 -86 l-35 -88q74 -5 113 -41t39 -102q0 -100 -68 -157.5t-182 -57.5q-87 0 -162 28l39 97q64 -21 123 -21q123 0 123 92q0 37 -28 54.5t-93 17.5q-27 0 -45 -2l-9 12l76 170q-383 39 -383 521z" />
<glyph unicode="&#xc8;" horiz-adv-x="1056" d="M55 0l267 1380h735l-23 -133h-600l-92 -465h528l-26 -133h-529l-98 -516h602l-24 -133h-740zM444 1700l66 121l418 -254l-47 -94z" />
<glyph unicode="&#xc9;" horiz-adv-x="1056" d="M55 0l267 1380h735l-23 -133h-600l-92 -465h528l-26 -133h-529l-98 -516h602l-24 -133h-740zM569 1567l422 254l64 -121l-439 -227z" />
<glyph unicode="&#xca;" horiz-adv-x="1056" d="M55 0l267 1380h735l-23 -133h-600l-92 -465h528l-26 -133h-529l-98 -516h602l-24 -133h-740zM453 1597l284 246h86l203 -266l-100 -68l-154 187h-12l-234 -180z" />
<glyph unicode="&#xcb;" horiz-adv-x="1056" d="M55 0l267 1380h735l-23 -133h-600l-92 -465h528l-26 -133h-529l-98 -516h602l-24 -133h-740zM502 1628q0 3 4 43q10 49 41.5 76t68.5 27q82 0 82 -70q0 -13 -6 -43q-10 -51 -41.5 -76.5t-77.5 -25.5q-71 0 -71 69zM809 1628q0 13 6 43q10 50 42 76.5t71 26.5q80 0 80 -70 q0 -8 -7 -43q-10 -51 -40.5 -76.5t-73.5 -25.5q-78 0 -78 69z" />
<glyph unicode="&#xcc;" horiz-adv-x="524" d="M61 0l267 1380h135l-266 -1380h-136zM61 1700l66 121l418 -254l-47 -94z" />
<glyph unicode="&#xcd;" horiz-adv-x="524" d="M61 0l267 1380h135l-266 -1380h-136zM260 1567l422 254l63 -121l-438 -227z" />
<glyph unicode="&#xce;" horiz-adv-x="524" d="M61 0l267 1380h135l-266 -1380h-136zM137 1597l285 246h86l203 -266l-101 -68l-153 187h-13l-233 -180z" />
<glyph unicode="&#xcf;" horiz-adv-x="524" d="M61 0l267 1380h135l-266 -1380h-136zM195 1628q0 3 4 43q10 49 41.5 76t68.5 27q82 0 82 -70q0 -13 -6 -43q-10 -51 -41.5 -76.5t-77.5 -25.5q-71 0 -71 69zM502 1628q0 13 6 43q10 50 42 76.5t71 26.5q79 0 79 -70q0 -13 -6 -43q-10 -51 -40.5 -76.5t-73.5 -25.5 q-78 0 -78 69z" />
<glyph unicode="&#xd0;" horiz-adv-x="1265" d="M37 631l24 133h142l119 616h292q142 0 223.5 -12.5t147.5 -42.5q189 -89 189 -393q0 -105 -17 -215.5t-52.5 -224.5t-101.5 -214.5t-153 -162.5t-203 -88.5t-278 -26.5h-314l121 631h-139zM215 133h184q134 0 215.5 18.5t157.5 73.5q119 82 189.5 280.5t70.5 414.5 q0 173 -69 245q-46 48 -121 65t-215 17h-195l-94 -483h256l-27 -133h-256z" />
<glyph unicode="&#xd1;" horiz-adv-x="1370" d="M55 0l267 1380h124l521 -1128h2l221 1128h125l-266 -1380h-107l-541 1143h-2l-219 -1143h-125zM543 1638q95 168 209 168q33 0 58 -10.5t69 -42.5l28 -20q49 -37 84 -37q27 0 51.5 22t55.5 70l69 -62q-39 -78 -81 -114.5t-97 -36.5q-64 0 -133 51l-29 21 q-29 22 -47.5 30.5t-42.5 8.5q-54 0 -121 -109z" />
<glyph unicode="&#xd2;" horiz-adv-x="1310" d="M96 479q0 117 23.5 240t77.5 248.5t132 223.5t198 160t264 62q423 0 423 -512q0 -82 -12 -168.5t-38 -178.5t-64.5 -176.5t-96 -159.5t-127 -130.5t-161.5 -88t-197 -32.5q-216 0 -319 133.5t-103 378.5zM238 496q0 -203 70 -299.5t229 -96.5q107 0 197.5 51.5t151 134.5 t103.5 188t62.5 210t19.5 203q0 202 -69.5 297.5t-229.5 95.5q-107 0 -197.5 -51.5t-151 -134t-103.5 -187.5t-62.5 -209.5t-19.5 -201.5zM555 1700l66 121l417 -254l-47 -94z" />
<glyph unicode="&#xd3;" horiz-adv-x="1310" d="M96 479q0 117 23.5 240t77.5 248.5t132 223.5t198 160t264 62q423 0 423 -512q0 -82 -12 -168.5t-38 -178.5t-64.5 -176.5t-96 -159.5t-127 -130.5t-161.5 -88t-197 -32.5q-216 0 -319 133.5t-103 378.5zM238 496q0 -203 70 -299.5t229 -96.5q107 0 197.5 51.5t151 134.5 t103.5 188t62.5 210t19.5 203q0 202 -69.5 297.5t-229.5 95.5q-107 0 -197.5 -51.5t-151 -134t-103.5 -187.5t-62.5 -209.5t-19.5 -201.5zM653 1567l422 254l64 -121l-439 -227z" />
<glyph unicode="&#xd4;" horiz-adv-x="1310" d="M96 479q0 117 23.5 240t77.5 248.5t132 223.5t198 160t264 62q423 0 423 -512q0 -82 -12 -168.5t-38 -178.5t-64.5 -176.5t-96 -159.5t-127 -130.5t-161.5 -88t-197 -32.5q-216 0 -319 133.5t-103 378.5zM238 496q0 -203 70 -299.5t229 -96.5q107 0 197.5 51.5t151 134.5 t103.5 188t62.5 210t19.5 203q0 202 -69.5 297.5t-229.5 95.5q-107 0 -197.5 -51.5t-151 -134t-103.5 -187.5t-62.5 -209.5t-19.5 -201.5zM561 1597l285 246h86l203 -266l-101 -68l-153 187h-13l-233 -180z" />
<glyph unicode="&#xd5;" horiz-adv-x="1310" d="M96 479q0 117 23.5 240t77.5 248.5t132 223.5t198 160t264 62q423 0 423 -512q0 -82 -12 -168.5t-38 -178.5t-64.5 -176.5t-96 -159.5t-127 -130.5t-161.5 -88t-197 -32.5q-216 0 -319 133.5t-103 378.5zM238 496q0 -203 70 -299.5t229 -96.5q107 0 197.5 51.5t151 134.5 t103.5 188t62.5 210t19.5 203q0 202 -69.5 297.5t-229.5 95.5q-107 0 -197.5 -51.5t-151 -134t-103.5 -187.5t-62.5 -209.5t-19.5 -201.5zM551 1638q95 168 209 168q33 0 58 -10.5t69 -42.5l28 -20q49 -37 84 -37q27 0 51.5 22t55.5 70l70 -62q-39 -78 -81.5 -114.5 t-97.5 -36.5q-64 0 -133 51l-28 21q-50 39 -91 39q-29 0 -57.5 -27t-62.5 -82z" />
<glyph unicode="&#xd6;" horiz-adv-x="1310" d="M96 479q0 117 23.5 240t77.5 248.5t132 223.5t198 160t264 62q423 0 423 -512q0 -82 -12 -168.5t-38 -178.5t-64.5 -176.5t-96 -159.5t-127 -130.5t-161.5 -88t-197 -32.5q-216 0 -319 133.5t-103 378.5zM238 496q0 -203 70 -299.5t229 -96.5q107 0 197.5 51.5t151 134.5 t103.5 188t62.5 210t19.5 203q0 202 -69.5 297.5t-229.5 95.5q-107 0 -197.5 -51.5t-151 -134t-103.5 -187.5t-62.5 -209.5t-19.5 -201.5zM604 1628q0 3 4 43q10 49 42 76t69 27q82 0 82 -70q0 -13 -6 -43q-10 -51 -41.5 -76.5t-77.5 -25.5q-72 0 -72 69zM911 1628q0 8 7 43 q10 50 41.5 76.5t70.5 26.5q80 0 80 -70q0 -13 -6 -43q-10 -51 -41 -76.5t-74 -25.5q-78 0 -78 69z" />
<glyph unicode="&#xd7;" d="M27 276l376 314l-241 299l100 80l240 -295l354 295l78 -92l-354 -297l249 -308l-96 -88l-252 312l-377 -314z" />
<glyph unicode="&#xd8;" horiz-adv-x="1310" d="M80 -135l135 217q-119 122 -119 397q0 117 23.5 240t77.5 248.5t132 223.5t198 160t264 62q134 0 223 -53l129 209l92 -47l-137 -226q116 -128 116 -395q0 -82 -12 -168.5t-38 -178.5t-64.5 -176.5t-96 -159.5t-127 -130.5t-161.5 -88t-197 -32.5q-127 0 -217 49 l-129 -206zM238 496q0 -192 59 -283l641 1028q-62 39 -166 39q-107 0 -197.5 -51.5t-151 -134t-103.5 -187.5t-62.5 -209.5t-19.5 -201.5zM373 137q67 -37 164 -37q107 0 197.5 51.5t151 134.5t103.5 188t62.5 210t19.5 203q0 184 -57 276z" />
<glyph unicode="&#xd9;" horiz-adv-x="1255" d="M109 322q0 79 20 188l172 870h135l-170 -868q-18 -99 -18 -172q0 -119 61.5 -179.5t202.5 -60.5q185 0 276 95q91 91 134 317l170 868h135l-174 -882q-28 -142 -68.5 -238t-106 -163.5t-159 -98.5t-225.5 -31q-192 0 -288.5 93t-96.5 262zM457 1700l65 121l418 -254 l-47 -94z" />
<glyph unicode="&#xda;" horiz-adv-x="1255" d="M109 322q0 79 20 188l172 870h135l-170 -868q-18 -99 -18 -172q0 -119 61.5 -179.5t202.5 -60.5q185 0 276 95q91 91 134 317l170 868h135l-174 -882q-28 -142 -68.5 -238t-106 -163.5t-159 -98.5t-225.5 -31q-192 0 -288.5 93t-96.5 262zM612 1567l422 254l64 -121 l-439 -227z" />
<glyph unicode="&#xdb;" horiz-adv-x="1255" d="M109 322q0 79 20 188l172 870h135l-170 -868q-18 -99 -18 -172q0 -119 61.5 -179.5t202.5 -60.5q185 0 276 95q91 91 134 317l170 868h135l-174 -882q-28 -142 -68.5 -238t-106 -163.5t-159 -98.5t-225.5 -31q-192 0 -288.5 93t-96.5 262zM514 1597l285 246h86l202 -266 l-100 -68l-153 187h-13l-233 -180z" />
<glyph unicode="&#xdc;" horiz-adv-x="1255" d="M109 322q0 79 20 188l172 870h135l-170 -868q-18 -99 -18 -172q0 -119 61.5 -179.5t202.5 -60.5q185 0 276 95q91 91 134 317l170 868h135l-174 -882q-28 -142 -68.5 -238t-106 -163.5t-159 -98.5t-225.5 -31q-192 0 -288.5 93t-96.5 262zM561 1628q0 3 4 43q10 49 42 76 t69 27q82 0 82 -70q0 -13 -6 -43q-10 -51 -41.5 -76.5t-77.5 -25.5q-72 0 -72 69zM868 1628q0 13 6 43q10 50 42 76.5t71 26.5q80 0 80 -70q0 -13 -6 -43q-10 -51 -41 -76.5t-74 -25.5q-78 0 -78 69z" />
<glyph unicode="&#xdd;" horiz-adv-x="950" d="M158 1380h143q57 -507 143 -790h5q107 160 239 391.5t213 398.5h141q-106 -206 -263.5 -470t-293.5 -457l-86 -453h-135l86 455q-130 379 -192 925zM424 1567l422 254l63 -121l-438 -227z" />
<glyph unicode="&#xde;" horiz-adv-x="1107" d="M55 0l267 1380h135l-45 -237h206q135 0 220 -24.5t131 -80.5q64 -70 61 -209q-2 -84 -19 -162t-59.5 -158t-107.5 -132q-68 -53 -165 -75.5t-251 -22.5h-184l-54 -279h-135zM270 412h158q244 0 328 65q64 50 97.5 147t33.5 191q0 104 -51 146q-33 27 -89 38t-157 11h-205 z" />
<glyph unicode="&#xdf;" horiz-adv-x="1038" d="M-27 -297l326 1683q149 48 313 48q151 0 246.5 -70.5t95.5 -206.5q0 -144 -67.5 -247.5t-190.5 -139.5v-4q102 -23 158.5 -98.5t54.5 -186.5q-1 -161 -73 -279t-193.5 -176.5t-277.5 -58.5q-24 0 -74 4l22 99q16 -2 47 -2q187 0 300.5 106t113.5 293q0 132 -71 189 t-201 57l20 100q139 20 220 107t81 219q0 96 -57 140t-174 44q-92 0 -186 -27l-310 -1593h-123z" />
<glyph unicode="&#xe0;" horiz-adv-x="976" d="M8 215q0 109 66.5 199.5t181.5 140.5q143 61 393 61h62l10 56q8 41 8 82q0 85 -48.5 123t-166.5 38q-138 0 -287 -63v109q153 65 314 65q150 0 230.5 -61t80.5 -174q0 -68 -16 -144l-88 -463q-11 -49 -11 -63q0 -25 13.5 -35t48.5 -10h12l-16 -82q-38 -10 -76 -10 q-48 0 -78 27.5t-29 80.5q-67 -58 -155 -91.5t-174 -33.5q-133 0 -204 66t-71 182zM139 225q0 -66 43.5 -105.5t128.5 -39.5q86 0 171 38t151 97l59 301h-69q-150 0 -254 -29q-106 -32 -168 -98.5t-62 -163.5zM313 1343l66 121l418 -254l-47 -96z" />
<glyph unicode="&#xe1;" horiz-adv-x="976" d="M8 215q0 109 66.5 199.5t181.5 140.5q143 61 393 61h62l10 56q8 41 8 82q0 85 -48.5 123t-166.5 38q-138 0 -287 -63v109q153 65 314 65q150 0 230.5 -61t80.5 -174q0 -68 -16 -144l-88 -463q-11 -49 -11 -63q0 -25 13.5 -35t48.5 -10h12l-16 -82q-38 -10 -76 -10 q-48 0 -78 27.5t-29 80.5q-67 -58 -155 -91.5t-174 -33.5q-133 0 -204 66t-71 182zM139 225q0 -66 43.5 -105.5t128.5 -39.5q86 0 171 38t151 97l59 301h-69q-150 0 -254 -29q-106 -32 -168 -98.5t-62 -163.5zM410 1210l419 254l64 -121l-438 -229z" />
<glyph unicode="&#xe2;" horiz-adv-x="976" d="M8 215q0 109 66.5 199.5t181.5 140.5q143 61 393 61h62l10 56q8 41 8 82q0 85 -48.5 123t-166.5 38q-138 0 -287 -63v109q153 65 314 65q150 0 230.5 -61t80.5 -174q0 -68 -16 -144l-88 -463q-11 -49 -11 -63q0 -25 13.5 -35t48.5 -10h12l-16 -82q-38 -10 -76 -10 q-48 0 -78 27.5t-29 80.5q-67 -58 -155 -91.5t-174 -33.5q-133 0 -204 66t-71 182zM139 225q0 -66 43.5 -105.5t128.5 -39.5q86 0 171 38t151 97l59 301h-69q-150 0 -254 -29q-106 -32 -168 -98.5t-62 -163.5zM336 1239l285 248h86l204 -266l-96 -66l-156 199h-12l-239 -195 z" />
<glyph unicode="&#xe3;" horiz-adv-x="976" d="M8 215q0 109 66.5 199.5t181.5 140.5q143 61 393 61h62l10 56q8 41 8 82q0 85 -48.5 123t-166.5 38q-138 0 -287 -63v109q153 65 314 65q150 0 230.5 -61t80.5 -174q0 -68 -16 -144l-88 -463q-11 -49 -11 -63q0 -25 13.5 -35t48.5 -10h12l-16 -82q-38 -10 -76 -10 q-48 0 -78 27.5t-29 80.5q-67 -58 -155 -91.5t-174 -33.5q-133 0 -204 66t-71 182zM139 225q0 -66 43.5 -105.5t128.5 -39.5q86 0 171 38t151 97l59 301h-69q-150 0 -254 -29q-106 -32 -168 -98.5t-62 -163.5zM328 1278q95 166 207 166q33 0 58 -10.5t71 -42.5l26 -21 q52 -35 84 -35q27 0 52 21.5t55 68.5l69 -61q-39 -77 -81.5 -113.5t-96.5 -36.5q-66 0 -133 52l-29 20q-51 37 -88 37q-59 0 -121 -106z" />
<glyph unicode="&#xe4;" horiz-adv-x="976" d="M8 215q0 109 66.5 199.5t181.5 140.5q143 61 393 61h62l10 56q8 41 8 82q0 85 -48.5 123t-166.5 38q-138 0 -287 -63v109q153 65 314 65q150 0 230.5 -61t80.5 -174q0 -68 -16 -144l-88 -463q-11 -49 -11 -63q0 -25 13.5 -35t48.5 -10h12l-16 -82q-38 -10 -76 -10 q-48 0 -78 27.5t-29 80.5q-67 -58 -155 -91.5t-174 -33.5q-133 0 -204 66t-71 182zM139 225q0 -66 43.5 -105.5t128.5 -39.5q86 0 171 38t151 97l59 301h-69q-150 0 -254 -29q-106 -32 -168 -98.5t-62 -163.5zM385 1272q0 11 6 41q10 50 41.5 77t67.5 27q82 0 82 -69 q0 -10 -7 -45q-10 -51 -40.5 -76t-75.5 -25q-74 0 -74 70zM692 1272q0 11 6 41q10 50 42 77t71 27q80 0 80 -69q0 -15 -6 -45q-9 -50 -40 -75.5t-75 -25.5q-78 0 -78 70z" />
<glyph unicode="&#xe5;" horiz-adv-x="976" d="M8 215q0 109 66.5 199.5t181.5 140.5q143 61 393 61h62l10 56q8 41 8 82q0 85 -48.5 123t-166.5 38q-138 0 -287 -63v109q153 65 314 65q150 0 230.5 -61t80.5 -174q0 -68 -16 -144l-88 -463q-11 -49 -11 -63q0 -25 13.5 -35t48.5 -10h12l-16 -82q-38 -10 -76 -10 q-48 0 -78 27.5t-29 80.5q-67 -58 -155 -91.5t-174 -33.5q-133 0 -204 66t-71 182zM139 225q0 -66 43.5 -105.5t128.5 -39.5q86 0 171 38t151 97l59 301h-69q-150 0 -254 -29q-106 -32 -168 -98.5t-62 -163.5zM469 1309q2 87 61.5 148t145.5 61q63 0 102 -41.5t37 -104.5 q0 -87 -59 -148t-150 -61q-62 0 -100.5 42t-36.5 104zM561 1323q0 -29 17 -48.5t47 -19.5q39 0 68.5 29.5t29.5 73.5q0 30 -17 48.5t-47 18.5q-41 0 -69.5 -28.5t-28.5 -73.5z" />
<glyph unicode="&#xe6;" horiz-adv-x="1630" d="M8 215q0 109 66.5 199.5t181.5 140.5q143 61 393 61h62l10 56q8 41 8 82q0 85 -48.5 123t-166.5 38q-138 0 -287 -63v109q153 65 314 65q249 0 297 -160q147 160 358 160q158 0 239 -90.5t81 -243.5q0 -102 -21 -207l-6 -43h-688q-6 -49 -6 -92q0 -136 65 -202t215 -66 q143 0 287 61l-2 -108q-145 -68 -313 -68q-269 0 -349 180q-76 -84 -189 -132t-218 -48q-135 0 -209 66.5t-74 181.5zM139 225q0 -66 43.5 -105.5t128.5 -39.5q91 0 194 49t163 117q-14 124 16 270h-61q-150 0 -254 -29q-106 -32 -168 -98.5t-62 -163.5zM819 551h555 q15 73 15 129q0 106 -50.5 166.5t-156.5 60.5q-127 0 -207 -69q-117 -102 -156 -287z" />
<glyph unicode="&#xe7;" horiz-adv-x="921" d="M59 367q0 123 38 239t108 210.5t182.5 152t249.5 57.5q139 0 258 -74l-41 -116q-107 71 -231 71q-101 0 -185 -46.5t-137.5 -122t-82.5 -169t-28 -190.5q4 -287 254 -297q134 -5 271 61l-2 -112q-114 -54 -242 -62l-45 -110q74 -5 113 -41.5t39 -102.5q0 -100 -68 -156.5 t-182 -56.5q-89 0 -162 27l39 98q59 -22 123 -22q123 0 123 94q0 36 -28 53t-93 17h-45l-9 10l86 192q-156 21 -229.5 127t-73.5 269z" />
<glyph unicode="&#xe8;" d="M59 344q0 189 63 343t186 246.5t284 92.5q158 0 238.5 -90.5t80.5 -243.5q0 -102 -18 -207l-8 -43h-688q-7 -58 -7 -92q0 -136 65.5 -202t215.5 -66q143 0 287 61l-2 -108q-145 -68 -314 -68q-197 0 -290 94t-93 283zM215 551h555q14 68 14 129q0 106 -50 166.5 t-156 60.5q-127 0 -207 -69q-118 -105 -156 -287zM332 1343l65 121l418 -254l-47 -96z" />
<glyph unicode="&#xe9;" d="M59 344q0 189 63 343t186 246.5t284 92.5q158 0 238.5 -90.5t80.5 -243.5q0 -102 -18 -207l-8 -43h-688q-7 -58 -7 -92q0 -136 65.5 -202t215.5 -66q143 0 287 61l-2 -108q-145 -68 -314 -68q-197 0 -290 94t-93 283zM215 551h555q14 68 14 129q0 106 -50 166.5 t-156 60.5q-127 0 -207 -69q-118 -105 -156 -287zM436 1208l420 254l64 -121l-439 -229z" />
<glyph unicode="&#xea;" d="M59 344q0 189 63 343t186 246.5t284 92.5q158 0 238.5 -90.5t80.5 -243.5q0 -102 -18 -207l-8 -43h-688q-7 -58 -7 -92q0 -136 65.5 -202t215.5 -66q143 0 287 61l-2 -108q-145 -68 -314 -68q-197 0 -290 94t-93 283zM215 551h555q14 68 14 129q0 106 -50 166.5 t-156 60.5q-127 0 -207 -69q-118 -105 -156 -287zM354 1239l285 248h86l205 -266l-96 -66l-156 199h-12l-240 -195z" />
<glyph unicode="&#xeb;" d="M59 344q0 189 63 343t186 246.5t284 92.5q158 0 238.5 -90.5t80.5 -243.5q0 -102 -18 -207l-8 -43h-688q-7 -58 -7 -92q0 -136 65.5 -202t215.5 -66q143 0 287 61l-2 -108q-145 -68 -314 -68q-197 0 -290 94t-93 283zM215 551h555q14 68 14 129q0 106 -50 166.5 t-156 60.5q-127 0 -207 -69q-118 -105 -156 -287zM395 1272q0 11 6 41q10 50 41.5 77t67.5 27q82 0 82 -69q0 -15 -6 -45q-10 -51 -41 -76t-76 -25q-74 0 -74 70zM702 1272q0 6 7 41q10 50 41.5 77t70.5 27q80 0 80 -69q0 -15 -6 -45q-9 -50 -40 -75.5t-75 -25.5 q-78 0 -78 70z" />
<glyph unicode="&#xec;" horiz-adv-x="444" d="M-25 1343l66 121l418 -254l-47 -96zM35 0l190 993h123l-190 -993h-123z" />
<glyph unicode="&#xed;" horiz-adv-x="444" d="M35 0l190 993h123l-190 -993h-123zM193 1210l419 254l64 -121l-438 -229z" />
<glyph unicode="&#xee;" horiz-adv-x="444" d="M35 0l190 993h123l-190 -993h-123zM45 1239l285 248h86l205 -266l-97 -66l-155 199h-13l-239 -195z" />
<glyph unicode="&#xef;" horiz-adv-x="444" d="M35 0l190 993h123l-190 -993h-123zM109 1272q0 11 6 41q10 50 41 77t67 27q82 0 82 -69q0 -15 -6 -45q-10 -51 -41 -76t-76 -25q-73 0 -73 70zM416 1272q0 11 6 41q10 50 42 77t71 27q79 0 79 -69q0 -15 -6 -45q-9 -50 -39.5 -75.5t-74.5 -25.5q-78 0 -78 70z" />
<glyph unicode="&#xf0;" horiz-adv-x="1054" d="M59 348q0 93 19 186.5t61 182.5t101.5 157.5t147.5 110t192 41.5q114 0 196 -53q-30 172 -147 268l-176 -123l-56 82l146 103q-63 34 -150 59l96 61q88 -28 142 -59l182 127l55 -82l-149 -104q203 -172 203 -529q0 -67 -6.5 -136.5t-23 -150.5t-42.5 -153.5t-68 -141 t-95 -118t-129 -79.5t-165 -30q-153 0 -243 100t-91 281zM190 365q3 -277 220 -277q88 0 157.5 51.5t110.5 129t68 176.5t37 184.5t10 163.5q0 29 -2 43q-80 71 -213 71q-77 0 -143 -34.5t-110 -90t-75.5 -127t-45.5 -145.5t-14 -145z" />
<glyph unicode="&#xf1;" horiz-adv-x="1085" d="M31 0l190 993h103l-13 -125q84 72 187 115t196 43q126 0 196.5 -63t70.5 -175q0 -71 -25 -196l-113 -592h-123l111 584q23 113 23 178q0 74 -39.5 107.5t-126.5 33.5q-95 0 -194.5 -44t-178.5 -120l-141 -739h-123zM422 1278q95 166 207 166q33 0 58 -10.5t71 -42.5 l26 -21q52 -35 84 -35q27 0 52 21.5t55 68.5l69 -61q-39 -77 -81.5 -113.5t-96.5 -36.5q-66 0 -133 52l-28 20q-51 37 -89 37q-58 0 -120 -106z" />
<glyph unicode="&#xf2;" horiz-adv-x="1085" d="M59 348q0 99 21 195t65.5 183.5t107.5 154t154 106t199 39.5q174 0 267.5 -101.5t93.5 -279.5q0 -100 -20 -195t-63.5 -183.5t-106 -154.5t-155 -105.5t-202.5 -39.5q-175 0 -268 101.5t-93 279.5zM190 362q0 -136 60 -210t184 -74q82 0 150.5 33.5t114 89t76.5 128 t45 148.5t14 154q0 284 -242 284q-80 0 -147.5 -33.5t-113.5 -89t-78.5 -128t-47.5 -149t-15 -153.5zM367 1343l65 121l418 -254l-47 -96z" />
<glyph unicode="&#xf3;" horiz-adv-x="1085" d="M59 348q0 99 21 195t65.5 183.5t107.5 154t154 106t199 39.5q174 0 267.5 -101.5t93.5 -279.5q0 -100 -20 -195t-63.5 -183.5t-106 -154.5t-155 -105.5t-202.5 -39.5q-175 0 -268 101.5t-93 279.5zM190 362q0 -136 60 -210t184 -74q82 0 150.5 33.5t114 89t76.5 128 t45 148.5t14 154q0 284 -242 284q-80 0 -147.5 -33.5t-113.5 -89t-78.5 -128t-47.5 -149t-15 -153.5zM479 1210l420 254l64 -121l-439 -229z" />
<glyph unicode="&#xf4;" horiz-adv-x="1085" d="M59 348q0 99 21 195t65.5 183.5t107.5 154t154 106t199 39.5q174 0 267.5 -101.5t93.5 -279.5q0 -100 -20 -195t-63.5 -183.5t-106 -154.5t-155 -105.5t-202.5 -39.5q-175 0 -268 101.5t-93 279.5zM190 362q0 -136 60 -210t184 -74q82 0 150.5 33.5t114 89t76.5 128 t45 148.5t14 154q0 284 -242 284q-80 0 -147.5 -33.5t-113.5 -89t-78.5 -128t-47.5 -149t-15 -153.5zM399 1239l285 248h86l205 -266l-96 -66l-156 199h-12l-240 -195z" />
<glyph unicode="&#xf5;" horiz-adv-x="1085" d="M59 348q0 99 21 195t65.5 183.5t107.5 154t154 106t199 39.5q174 0 267.5 -101.5t93.5 -279.5q0 -100 -20 -195t-63.5 -183.5t-106 -154.5t-155 -105.5t-202.5 -39.5q-175 0 -268 101.5t-93 279.5zM190 362q0 -136 60 -210t184 -74q82 0 150.5 33.5t114 89t76.5 128 t45 148.5t14 154q0 284 -242 284q-80 0 -147.5 -33.5t-113.5 -89t-78.5 -128t-47.5 -149t-15 -153.5zM397 1278q95 166 207 166q33 0 58 -10.5t71 -42.5l27 -21q52 -35 84 -35q27 0 51.5 21.5t54.5 68.5l70 -61q-39 -77 -81.5 -113.5t-96.5 -36.5q-66 0 -133 52l-29 20 q-51 37 -88 37q-59 0 -121 -106z" />
<glyph unicode="&#xf6;" horiz-adv-x="1085" d="M59 348q0 99 21 195t65.5 183.5t107.5 154t154 106t199 39.5q174 0 267.5 -101.5t93.5 -279.5q0 -100 -20 -195t-63.5 -183.5t-106 -154.5t-155 -105.5t-202.5 -39.5q-175 0 -268 101.5t-93 279.5zM190 362q0 -136 60 -210t184 -74q82 0 150.5 33.5t114 89t76.5 128 t45 148.5t14 154q0 284 -242 284q-80 0 -147.5 -33.5t-113.5 -89t-78.5 -128t-47.5 -149t-15 -153.5zM463 1272q0 11 6 41q10 50 41.5 77t67.5 27q81 0 81 -69q0 -15 -6 -45q-10 -51 -40.5 -76t-75.5 -25q-74 0 -74 70zM770 1272q0 11 6 41q10 50 42 77t71 27q80 0 80 -69 q0 -15 -6 -45q-9 -50 -40 -75.5t-75 -25.5q-78 0 -78 70z" />
<glyph unicode="&#xf7;" d="M82 508l22 121h781l-25 -121h-778zM324 195q0 21 12 75q14 50 39.5 72.5t70.5 22.5q74 0 74 -72q0 -26 -12 -76q-10 -50 -37.5 -73t-73.5 -23q-73 0 -73 74zM449 846q0 22 12 76q14 50 39.5 73t70.5 23q74 0 74 -74q0 -26 -12 -76q-17 -96 -111 -96q-73 0 -73 74z" />
<glyph unicode="&#xf8;" horiz-adv-x="1085" d="M59 348q0 99 21 195t65.5 183.5t107.5 154t154 106t199 39.5q96 0 168 -35l115 176l84 -41l-119 -184q113 -101 113 -297q0 -100 -20 -195t-63.5 -183.5t-106 -154.5t-155 -105.5t-202.5 -39.5q-90 0 -166 31l-107 -170l-86 43l111 176q-113 101 -113 301zM190 362 q0 -133 54 -202l467 731q-57 24 -119 24q-80 0 -147.5 -33.5t-113.5 -89t-78.5 -128t-47.5 -149t-15 -153.5zM319 98q55 -20 115 -20q82 0 150.5 33.5t114 89t76.5 128t45 148.5t14 154q0 130 -52 196z" />
<glyph unicode="&#xf9;" horiz-adv-x="1036" d="M68 236q0 71 34 241l101 516h123l-101 -514q-35 -169 -35 -227q0 -76 35 -117q28 -31 73 -44t116 -13q59 0 101.5 7t76 28t55 47.5t41 76t32.5 103t30 139.5l100 514h123l-101 -516q-37 -186 -67.5 -274t-87.5 -142q-52 -48 -129 -71t-197 -23q-166 0 -245.5 70 t-77.5 199zM334 1343l65 121l418 -254l-47 -96z" />
<glyph unicode="&#xfa;" horiz-adv-x="1036" d="M68 236q0 71 34 241l101 516h123l-101 -514q-35 -169 -35 -227q0 -76 35 -117q28 -31 73 -44t116 -13q59 0 101.5 7t76 28t55 47.5t41 76t32.5 103t30 139.5l100 514h123l-101 -516q-37 -186 -67.5 -274t-87.5 -142q-52 -48 -129 -71t-197 -23q-166 0 -245.5 70 t-77.5 199zM473 1210l420 254l63 -121l-438 -229z" />
<glyph unicode="&#xfb;" horiz-adv-x="1036" d="M68 236q0 71 34 241l101 516h123l-101 -514q-35 -169 -35 -227q0 -76 35 -117q28 -31 73 -44t116 -13q59 0 101.5 7t76 28t55 47.5t41 76t32.5 103t30 139.5l100 514h123l-101 -516q-37 -186 -67.5 -274t-87.5 -142q-52 -48 -129 -71t-197 -23q-166 0 -245.5 70 t-77.5 199zM348 1239l285 248h86l205 -266l-97 -66l-155 199h-13l-239 -195z" />
<glyph unicode="&#xfc;" horiz-adv-x="1036" d="M68 236q0 71 34 241l101 516h123l-101 -514q-35 -169 -35 -227q0 -76 35 -117q28 -31 73 -44t116 -13q59 0 101.5 7t76 28t55 47.5t41 76t32.5 103t30 139.5l100 514h123l-101 -516q-37 -186 -67.5 -274t-87.5 -142q-52 -48 -129 -71t-197 -23q-166 0 -245.5 70 t-77.5 199zM399 1272q0 6 7 41q10 50 41 77t67 27q82 0 82 -69q0 -15 -6 -45q-10 -51 -41 -76t-76 -25q-74 0 -74 70zM707 1272q0 11 6 41q10 50 41.5 77t70.5 27q80 0 80 -69q0 -15 -6 -45q-9 -50 -40 -75.5t-75 -25.5q-77 0 -77 70z" />
<glyph unicode="&#xfd;" horiz-adv-x="1003" d="M70 250q0 65 16 143l117 600h123l-115 -587q-16 -82 -16 -130q0 -83 41.5 -120t134.5 -37q81 0 162 41.5t145 113.5l141 719h123l-180 -921q-19 -97 -43.5 -169t-63.5 -136t-90.5 -104t-125.5 -62.5t-169 -22.5q-91 0 -200 37l28 104q88 -30 189 -30q149 0 228.5 82.5 t117.5 263.5l18 98q-127 -133 -315 -133q-125 0 -195.5 67.5t-70.5 182.5zM457 1210l420 254l63 -121l-438 -229z" />
<glyph unicode="&#xfe;" horiz-adv-x="1075" d="M-49 -389l352 1790h121l-98 -494q156 119 327 119q77 0 140.5 -31.5t103.5 -89.5q59 -89 59 -239q-1 -99 -19.5 -195t-60.5 -188t-103.5 -161.5t-154.5 -112t-206 -42.5q-141 0 -254 68l-86 -424h-121zM180 158q44 -34 105.5 -54t120.5 -20q85 0 155.5 33t118 87.5 t81 127.5t48.5 151t16 160q1 136 -54 199t-167 63q-75 0 -156.5 -36t-144.5 -93z" />
<glyph unicode="&#xff;" horiz-adv-x="1003" d="M70 250q0 65 16 143l117 600h123l-115 -587q-16 -82 -16 -130q0 -83 41.5 -120t134.5 -37q81 0 162 41.5t145 113.5l141 719h123l-180 -921q-19 -97 -43.5 -169t-63.5 -136t-90.5 -104t-125.5 -62.5t-169 -22.5q-91 0 -200 37l28 104q88 -30 189 -30q149 0 228.5 82.5 t117.5 263.5l18 98q-127 -133 -315 -133q-125 0 -195.5 67.5t-70.5 182.5zM385 1272q0 11 6 41q10 50 41.5 77t67.5 27q82 0 82 -69q0 -10 -7 -45q-10 -51 -40.5 -76t-75.5 -25q-74 0 -74 70zM692 1272q0 11 6 41q10 50 42 77t71 27q80 0 80 -69q0 -15 -6 -45 q-9 -50 -40 -75.5t-75 -25.5q-78 0 -78 70z" />
<glyph unicode="&#x152;" horiz-adv-x="1730" d="M96 479q0 81 12 168.5t38.5 179t64.5 176t93.5 159.5t121.5 130.5t152 88t182 32.5q139 0 233 -86l11 53h727l-23 -133h-600l-92 -465h528l-26 -133h-529l-98 -516h602l-25 -133h-731l15 78q-48 -50 -124 -80.5t-155 -30.5q-171 0 -274 130t-103 382zM238 496 q0 -396 260 -396q75 0 148 35.5t126 93.5l189 963q-70 88 -197 88q-87 0 -164 -36t-133.5 -98t-101 -140.5t-72 -167t-41.5 -175.5t-14 -167z" />
<glyph unicode="&#x153;" horiz-adv-x="1744" d="M59 348q0 99 21 195t65.5 183.5t107 154t152 106t193.5 39.5q256 0 309 -215q57 104 165 159.5t233 55.5q162 0 243.5 -90t81.5 -244q0 -117 -18 -207l-8 -43h-689q-6 -49 -6 -92q0 -136 65.5 -202t215.5 -66q143 0 287 61l-2 -108q-145 -68 -312 -68q-141 0 -234 67 t-122 171q-134 -238 -391 -238q-172 0 -264.5 101.5t-92.5 279.5zM190 362q0 -136 60 -210t184 -74q86 0 157 48t116 127.5t69.5 179t24.5 206.5q0 140 -52 208t-167 68q-77 0 -142.5 -33.5t-110.5 -89t-77 -128t-47 -149t-15 -153.5zM934 551h557q12 78 12 129 q0 106 -50.5 166.5t-156.5 60.5q-127 0 -204 -69q-116 -101 -158 -287z" />
<glyph unicode="&#x178;" horiz-adv-x="950" d="M158 1380h143q57 -507 143 -790h5q107 160 239 391.5t213 398.5h141q-106 -206 -263.5 -470t-293.5 -457l-86 -453h-135l86 455q-130 379 -192 925zM383 1628q0 3 4 43q10 49 42 76t69 27q82 0 82 -70q0 -8 -7 -43q-10 -51 -41 -76.5t-77 -25.5q-72 0 -72 69zM690 1628 q0 13 6 43q10 50 42 76.5t71 26.5q80 0 80 -70q0 -13 -6 -43q-10 -51 -41 -76.5t-74 -25.5q-78 0 -78 69z" />
<glyph unicode="&#x2c6;" horiz-adv-x="657" d="M43 1239l285 248h86l204 -266l-96 -66l-155 199h-13l-239 -195z" />
<glyph unicode="&#x2dc;" horiz-adv-x="657" d="M31 1278q95 166 207 166q33 0 58 -10.5t71 -42.5l26 -21q52 -35 84 -35q27 0 52 21.5t55 68.5l69 -61q-39 -77 -81.5 -113.5t-96.5 -36.5q-66 0 -133 52l-29 20q-51 37 -88 37q-59 0 -121 -106z" />
<glyph unicode="&#x2000;" horiz-adv-x="938" />
<glyph unicode="&#x2001;" horiz-adv-x="1876" />
<glyph unicode="&#x2002;" horiz-adv-x="938" />
<glyph unicode="&#x2003;" horiz-adv-x="1876" />
<glyph unicode="&#x2004;" horiz-adv-x="625" />
<glyph unicode="&#x2005;" horiz-adv-x="469" />
<glyph unicode="&#x2006;" horiz-adv-x="312" />
<glyph unicode="&#x2007;" horiz-adv-x="312" />
<glyph unicode="&#x2008;" horiz-adv-x="234" />
<glyph unicode="&#x2009;" horiz-adv-x="375" />
<glyph unicode="&#x200a;" horiz-adv-x="104" />
<glyph unicode="&#x2010;" horiz-adv-x="528" d="M41 455l25 120h358l-25 -120h-358z" />
<glyph unicode="&#x2011;" horiz-adv-x="528" d="M41 455l25 120h358l-25 -120h-358z" />
<glyph unicode="&#x2012;" horiz-adv-x="528" d="M41 455l25 120h358l-25 -120h-358z" />
<glyph unicode="&#x2013;" horiz-adv-x="1024" d="M-43 461l18 108h1024l-18 -108h-1024z" />
<glyph unicode="&#x2014;" horiz-adv-x="2048" d="M-45 461l18 108h2048l-18 -108h-2048z" />
<glyph unicode="&#x2018;" horiz-adv-x="319" d="M119 1085q0 105 102 279q50 88 115 176l82 -37q-88 -132 -139 -235q55 -16 55 -74q0 -31 -10 -76q-14 -59 -43 -86.5t-78 -27.5q-84 0 -84 81z" />
<glyph unicode="&#x2019;" horiz-adv-x="307" d="M92 975q88 132 139 235q-55 16 -55 74q0 31 10 76q14 59 43 87t78 28q84 0 84 -82q0 -105 -102 -279q-50 -88 -115 -176z" />
<glyph unicode="&#x201a;" horiz-adv-x="284" d="M-162 -279q86 129 139 236q-55 16 -55 74q0 30 10 75q14 59 43 87t78 28q84 0 84 -82q0 -104 -102 -278q-50 -88 -115 -176z" />
<glyph unicode="&#x201c;" horiz-adv-x="677" d="M119 1065q0 104 102 278q53 93 115 177l82 -37q-85 -129 -139 -236q55 -16 55 -73q0 -31 -10 -76q-14 -59 -43 -87t-78 -28q-84 0 -84 82zM477 1065q0 102 103 278q57 99 114 177l82 -37q-86 -129 -139 -236q55 -16 55 -73q0 -31 -10 -76q-14 -59 -43 -87t-78 -28 q-84 0 -84 82z" />
<glyph unicode="&#x201d;" horiz-adv-x="661" d="M92 1006q88 132 139 235q-55 16 -55 74q0 31 10 76q14 59 43 86.5t78 27.5q84 0 84 -82q0 -104 -102 -278q-50 -88 -115 -176zM446 1006q92 138 140 235q-56 16 -56 74q0 27 11 76q14 59 43 86.5t78 27.5q83 0 83 -82q0 -104 -102 -278q-50 -88 -115 -176z" />
<glyph unicode="&#x201e;" horiz-adv-x="618" d="M-162 -279q86 129 139 236q-55 16 -55 74q0 30 10 75q14 59 43 87t78 28q84 0 84 -82q0 -104 -102 -278q-50 -88 -115 -176zM172 -279q86 129 139 236q-55 16 -55 74q0 30 10 75q14 59 43 87t78 28q84 0 84 -82q0 -104 -102 -278q-50 -88 -115 -176z" />
<glyph unicode="&#x2022;" horiz-adv-x="743" d="M72 401q0 69 18 142q16 70 37 116.5t55.5 82t85.5 51.5t123 16q108 0 154.5 -43t46.5 -123q0 -57 -17 -133q-24 -108 -56 -162.5t-86.5 -78t-153.5 -23.5q-207 0 -207 155z" />
<glyph unicode="&#x2026;" horiz-adv-x="1132" d="M-23 43q0 26 13 80q14 52 39.5 75t74.5 23q72 0 72 -76q0 -34 -10 -79q-20 -99 -115 -99q-74 0 -74 76zM352 43q0 26 13 80q12 51 38.5 74.5t73.5 23.5q74 0 74 -76q0 -25 -12 -79q-10 -52 -37.5 -75.5t-75.5 -23.5q-74 0 -74 76zM725 43q0 30 12 80q14 52 40 75t73 23 q74 0 74 -76q0 -21 -13 -79q-17 -99 -112 -99q-74 0 -74 76z" />
<glyph unicode="&#x202f;" horiz-adv-x="375" />
<glyph unicode="&#x2039;" horiz-adv-x="489" d="M-18 496l430 477l73 -64l-368 -422l202 -405l-90 -41z" />
<glyph unicode="&#x203a;" horiz-adv-x="489" d="M-76 84l369 422l-203 405l90 41l248 -454l-430 -478z" />
<glyph unicode="&#x205f;" horiz-adv-x="469" />
<glyph unicode="&#x20ac;" d="M-4 436l41 125h151q3 85 19 170h-156l43 121h139q70 262 228 411.5t413 149.5q157 0 308 -90l-58 -123q-130 86 -268 86q-98 0 -179.5 -32.5t-139.5 -92.5t-98 -136.5t-66 -172.5h352l-41 -121h-334q-12 -68 -16 -170h315l-43 -125h-274q7 -181 73 -260.5t209 -79.5 q162 0 312 78l8 -123q-159 -84 -342 -84q-200 0 -299 115t-107 354h-190z" />
<glyph unicode="&#x2122;" horiz-adv-x="1335" d="M150 1358l20 98h446l-20 -98h-172l-109 -551h-104l106 551h-167zM559 807q17 73 160 649h104q42 -184 105 -432q125 199 264 432h106q-39 -325 -92 -649h-106q48 276 74 459q-5 -9 -238 -387h-80q-64 270 -88 376q-31 -116 -104 -448h-105z" />
<glyph unicode="&#x25fc;" horiz-adv-x="993" d="M0 0v993h993v-993h-993z" />
</font>
</defs>
</svg>
